<svg xmlns="http://www.w3.org/2000/svg" version="1.1" xmlns:xlink="http://www.w3.org/1999/xlink" xmlns:svgjs="http://svgjs.dev/svgjs" width="1000" height="1000" viewBox="0 0 1000 1000"><rect width="1000" height="1000" fill="#ffffff"></rect><g transform="matrix(0.7,0,0,0.7,149.57575757575756,282.1265587044535)"><svg viewBox="0 0 396 247" data-background-color="#ffffff" preserveAspectRatio="xMidYMid meet" height="623" width="1000" xmlns="http://www.w3.org/2000/svg" xmlns:xlink="http://www.w3.org/1999/xlink"><defs></defs><g id="tight-bounds" transform="matrix(1,0,0,1,0.2400000000000091,-0.09999999999999432)"><svg viewBox="0 0 395.52 247.2" height="247.2" width="395.52"><g><svg></svg></g><g><svg viewBox="0 0 395.52 247.2" height="247.2" width="395.52"><g transform="matrix(2.452, 0, 0, 2.452, 91.08574673461914, 1)"><svg xmlns="http://www.w3.org/2000/svg" xmlns:xlink="http://www.w3.org/1999/xlink" version="1.1" x="0" y="0" viewBox="6.607999801635742 0 87.00999450683594 100" enable-background="new 0 0 100 100" xml:space="preserve" height="100" width="87.00999450683594" class="icon-none" data-fill-palette-color="accent" id="none"><path d="M50.171 6.288c11.637 8.013 30.191 11.898 38.101 13.26 0.301 2.772 0.455 5.527 0.455 8.223 0 27.634-14.728 52.93-38.612 66.642C26.229 80.697 11.5 55.402 11.5 27.771c0-2.669 0.154-5.403 0.455-8.17C20.031 18.318 38.946 14.568 50.171 6.288M50.039 0C38.216 11.699 7.588 15.281 7.588 15.281c-0.628 4.078-0.98 8.24-0.98 12.49 0 31.327 17.64 58.512 43.506 72.229 25.87-13.718 43.504-40.902 43.504-72.229 0-4.25-0.346-8.412-0.973-12.49C92.646 15.281 62.822 11.34 50.039 0L50.039 0z" fill="#89939e" data-fill-palette-color="accent"></path><path d="M20.738 26.015c-0.435 2.824-0.677 5.702-0.677 8.638 0 21.633 12.19 40.407 30.053 49.882 17.864-9.476 30.052-28.249 30.052-49.882 0-2.936-0.247-5.814-0.674-8.638 0 0-20.602-2.719-29.432-10.551C41.892 23.542 20.738 26.015 20.738 26.015z" fill="#89939e" data-fill-palette-color="accent"></path></svg></g><rect width="348.05760000000004" height="56.62347410403477" fill="#ffffff" y="95.28826294798262" x="23.731199999999973" data-fill-palette-color="quaternary"></rect><g transform="matrix(1,0,0,1,39.55199999999999,104.36846884559652)"><svg viewBox="0 0 316.416 38.46306230880695" height="38.46306230880695" width="316.416"><g><svg viewBox="0 0 316.416 38.46306230880695" height="38.46306230880695" width="316.416"><g><svg viewBox="0 0 316.416 38.46306230880695" height="38.46306230880695" width="316.416"><g><svg viewBox="0 0 316.416 38.46306230880695" height="38.46306230880695" width="316.416"><g><svg viewBox="0 0 316.416 38.46306230880695" height="38.46306230880695" width="316.416"><g><svg viewBox="0 0 316.416 38.46306230880695" height="38.46306230880695" width="316.416"><g transform="matrix(1,0,0,1,0,0)"><svg width="316.416" viewBox="0.75 -37.5 310.5199890136719 37.75" height="38.46306230880695" data-palette-color="#636365"><path d="M10.8 0L0.75 0.05 0.8-0.65 3.4-1Q3.75-1.05 4-1.65L4-1.65 14.8-35 18.1-35 29.6-0.95 33.05-0.75Q33.05-0.7 33 0L33 0 23 0.05Q23-0.4 23.05-0.65L23.05-0.65 25.65-1Q26.05-1.05 26.05-1.6L26.05-1.6 23.3-9.75 7.7-9.75 5.05-1.05 10.85-0.75Q10.85-0.7 10.8 0L10.8 0ZM22.95-10.75L15.15-34.05 8-10.75 22.95-10.75ZM40.9-35.45L40.9-35.45 40.9-23Q43.9-25.45 47.6-25.45L47.6-25.45Q51-25.45 54-23.35L54-23.35Q55.6-22.2 56.57-19.75 57.55-17.3 57.55-13.8L57.55-13.8Q57.55-7.15 54.25-3.8L54.25-3.8Q50.5 0 44.75 0L44.75 0Q42.6 0 40.47-0.35 38.35-0.7 37.65-1.15L37.65-1.15 37.65-35.85Q37.55-36.25 37.35-36.25L37.35-36.25 34.3-36.35 34.35-37.05Q37.5-37.5 38.67-37.5 39.85-37.5 40.37-36.85 40.9-36.2 40.9-35.45ZM40.9-22.05L40.9-22.05 40.9-0.9Q42.25-0.45 44.05-0.45L44.05-0.45Q48.95-0.45 51.62-3.9 54.3-7.35 54.3-13.55L54.3-13.55Q54.3-20.35 51.6-22.7L51.6-22.7Q49.5-24.55 46.75-24.55 44-24.55 40.9-22.05ZM68.14-0.6L68.14-0.6Q68.45-0.6 68.75-0.65L68.75-0.65Q71.34-0.7 73.09-2.27 74.84-3.85 74.84-6.9L74.84-6.9Q74.84-9.9 70.15-11.25L70.15-11.25Q68.2-11.8 66.25-12.45 64.3-13.1 62.92-14.5 61.55-15.9 61.55-18.15L61.55-18.15Q61.55-21.35 64-23.28 66.45-25.2 70.2-25.2L70.2-25.2Q73-25.2 75.84-24.2L75.84-24.2 76.75-23.85 76.75-18.1 75.8-17.75 75.59-22Q72.7-24.3 70.75-24.3L70.75-24.3Q68-24.3 66.39-22.68 64.8-21.05 64.8-18.35L64.8-18.35Q64.8-16.8 66.17-15.85 67.55-14.9 69.5-14.35 71.45-13.8 73.4-13.13 75.34-12.45 76.72-10.93 78.09-9.4 78.09-6.95L78.09-6.95Q78.09-3.65 75.62-1.73 73.15 0.2 68.59 0.2 64.05 0.2 61.05-1.95L61.05-1.95 61.05-7.7 61.95-8.05 62.2-3.8Q62.9-2.5 64.72-1.55 66.55-0.6 68.14-0.6ZM94.72 0.2Q89.49 0.2 86.27-2.8 83.04-5.8 83.04-11.98 83.04-18.15 86.47-21.68 89.89-25.2 95.09-25.2 100.29-25.2 103.54-22.2 106.79-19.2 106.79-13.03 106.79-6.85 103.37-3.33 99.94 0.2 94.72 0.2ZM95.04-24.3Q91.29-24.3 88.79-21.05 86.29-17.8 86.29-12.23 86.29-6.65 88.67-3.68 91.04-0.7 94.79-0.7 98.54-0.7 101.04-3.95 103.54-7.2 103.54-12.75 103.54-18.3 101.17-21.3 98.79-24.3 95.04-24.3ZM120.34 0L110.29 0.05 110.34-0.65 112.94-1Q113.29-1.05 113.39-1.5L113.39-1.5 113.39-35.7Q113.39-36.25 113.09-36.25L113.09-36.25 110.04-36.35 110.09-37.05Q113.24-37.5 114.42-37.5 115.59-37.5 116.12-36.85 116.64-36.2 116.64-35.45L116.64-35.45 116.64-1 120.39-0.75Q120.39-0.7 120.34 0L120.34 0ZM125.04-23.95L122.44-24.2 122.39-24.95 129.14-25 129.14-7.6Q129.14-5.65 129.69-4.23 130.24-2.8 130.91-2.15 131.59-1.5 132.49-1.15L132.49-1.15Q133.89-0.65 134.84-0.75L134.84-0.75Q137.89-0.8 141.79-3.9L141.79-3.9 141.79-23.25Q141.59-23.85 140.94-23.95L140.94-23.95 138.34-24.2Q138.29-24.5 138.29-24.95L138.29-24.95 145.04-25 145.04-2.3Q145.14-1.05 145.84-1.05L145.84-1.05 148.84-0.9 148.79-0.15Q146.39 0.25 143.79 0.25L143.79 0.25Q143.19 0.2 142.49-0.43 141.79-1.05 141.79-2L141.79-2 141.79-2.9Q137.24 0.15 133.19 0.15L133.19 0.15Q131.49 0.15 129.19-0.7L129.19-0.7Q127.69-1.25 126.79-2.78 125.89-4.3 125.89-6.6L125.89-6.6 125.89-23.2Q125.89-23.45 125.61-23.68 125.34-23.9 125.04-23.95L125.04-23.95ZM162.24-0.95L162.24-0.95 164.19-1.05 164.34-0.55Q164.29-0.55 163.64-0.4L163.64-0.4Q162.14-0.05 160.29-0.05L160.29-0.05Q158.59-0.15 157.19-0.63 155.79-1.1 154.59-2.63 153.39-4.15 153.39-6.55L153.39-6.55 153.39-24.1 150.84-24.1 151.24-24.5 153.44-24.95 153.84-29.75 156.64-30 156.64-25 162.69-25 162.69-24.1 156.64-24.1 156.64-7.4Q156.64-3.6 158.24-2.27 159.84-0.95 162.24-0.95ZM169.63-11.5L169.63-11.5Q169.63-0.7 178.03-0.7L178.03-0.7Q180.23-0.7 182.73-1.18 185.23-1.65 185.93-2.05L185.93-2.05 186.28-1.55Q185.13-0.8 182.51-0.3 179.88 0.2 177.71 0.2 175.53 0.2 173.81-0.25 172.08-0.7 170.28-1.85 168.48-3 167.43-5.45 166.38-7.9 166.38-11.45L166.38-11.45Q166.38-18.05 169.78-21.55L169.78-21.55Q173.33-25.2 178.03-25.2 182.73-25.2 185.21-22.6 187.68-20 187.68-15.3L187.68-15.3Q187.68-14.3 187.53-13.15L187.53-13.15 169.68-13.15Q169.63-12.6 169.63-11.5ZM184.73-15.65L184.73-15.65Q184.73-19.4 183.08-21.78 181.43-24.15 178.58-24.15L178.58-24.15Q174.88-24.15 172.33-20.9L172.33-20.9Q170.28-18.35 169.78-14.1L169.78-14.1 184.68-14.1Q184.73-14.65 184.73-15.65ZM209.53-33.95L206.88-34.25 206.93-35 217.63-35Q228.43-35 228.43-26.55L228.43-26.55Q228.43-23.3 224.13-19.45L224.13-19.45Q230.48-17.9 230.48-10.35L230.48-10.35Q230.48-4.45 227.5-2.23 224.53 0 218.38 0L218.38 0 216.93 0 206.88 0.05 206.93-0.65 209.53-1Q210.03-1.05 210.13-1.65L210.13-1.65 210.13-33.25Q210.03-33.9 209.53-33.95L209.53-33.95ZM219.38-19.15L219.38-19.15 213.53-19.15 213.53-0.75 218.13-0.75Q227.08-0.75 227.08-10.15L227.08-10.15Q227.08-14.95 225.15-17.05 223.23-19.15 219.38-19.15ZM213.53-19.9L219.63-19.9Q221.48-19.9 222.83-19.7L222.83-19.7Q225.03-23.15 225.03-26.25L225.03-26.25Q225.03-34.25 217.38-34.25L217.38-34.25 213.53-34.25 213.53-19.9ZM249.73-1.9L249.73-1.9 249.58-1.9Q245.08 0.2 240.83 0.2L240.83 0.2Q234.18 0.2 233.78-5.05L233.78-5.05Q233.73-5.4 233.73-5.7L233.73-5.7Q233.73-9.55 238.78-10.85L238.78-10.85Q241.78-11.5 249.58-12.4L249.58-12.4 249.58-16.8Q249.58-18.9 249.08-20.4 248.58-21.9 247.98-22.63 247.38-23.35 246.43-23.75L246.43-23.75Q245.23-24.25 243.75-24.25 242.28-24.25 240.38-23.5L240.38-23.5Q237.63-22.35 235.48-20.6L235.48-20.6 235.28-16.7 234.33-16.45 234.33-22.5 234.83-22.7Q238.73-24.4 240.78-24.75 242.83-25.1 243.78-25.13 244.73-25.15 245.6-25.1 246.48-25.05 247.88-24.65 249.28-24.25 250.3-23.53 251.33-22.8 252.08-21.35 252.83-19.9 252.83-17.9L252.83-17.9 252.83-2.6Q252.83-1.05 253.63-1.05L253.63-1.05 256.68-0.9 256.63-0.15Q253.83 0.25 251.63 0.25L251.63 0.25Q251.03 0.2 250.38-0.38 249.73-0.95 249.73-1.9ZM241.73-0.6L241.73-0.6Q245.43-0.6 249.58-3.2L249.58-3.2 249.58-11.45Q242.08-11.2 240.15-10.58 238.23-9.95 237.5-8.63 236.78-7.3 236.78-6L236.78-6Q236.78-5.75 236.78-5.5L236.78-5.5Q236.93-2.9 238.33-1.75 239.73-0.6 241.73-0.6ZM268.47 0L258.42 0.05 258.47-0.65 261.07-1Q261.52-1.05 261.52-1.7L261.52-1.7 261.52-23.35Q261.42-23.75 261.22-23.75L261.22-23.75 258.17-23.85 258.22-24.55Q261.37-25 262.47-25L262.47-25Q264.47-25 264.72-23.25L264.72-23.25 264.77-23.25 264.77-22.2Q268.87-25 272.62-25.15L272.62-25.15Q276.27-25.15 278.17-23.7L278.17-23.7Q279.02-23.05 279.7-21.68 280.37-20.3 280.37-18.4L280.37-18.4 280.37-1 284.12-0.75Q284.12-0.7 284.07 0L284.07 0 274.07 0.05Q274.07-0.4 274.12-0.65L274.12-0.65 276.72-1Q277.12-1.05 277.12-1.7L277.12-1.7 277.12-17.15Q277.12-19.15 276.6-20.55 276.07-21.95 275.42-22.6 274.77-23.25 273.82-23.6L273.82-23.6Q272.72-24 271.52-24L271.52-24Q268.52-23.95 264.77-21.65L264.77-21.65 264.77-1 268.52-0.75Q268.52-0.7 268.47 0L268.47 0ZM297.47 0L287.42 0.05 287.47-0.65 290.07-1Q290.42-1.05 290.52-1.5L290.52-1.5 290.52-35.7Q290.52-36.25 290.22-36.25L290.22-36.25 287.17-36.35 287.22-37.05Q290.37-37.5 291.55-37.5 292.72-37.5 293.25-36.85 293.77-36.2 293.77-35.45L293.77-35.45 293.77-1 297.52-0.75Q297.52-0.7 297.47 0L297.47 0ZM307.82-1L311.27-0.75Q311.27-0.7 311.22 0L311.22 0 304.92 0 293.77-13.3 302.37-23.25Q302.37-23.9 301.97-23.95L301.97-23.95 299.37-24.3Q299.32-24.55 299.32-25L299.32-25 309.82-24.95Q309.82-24.9 309.87-24.2L309.87-24.2 304.17-23.85 295.77-14.7 307.82-1Z" opacity="1" transform="matrix(1,0,0,1,0,0)" fill="#636365" class="undefined-text-0" data-fill-palette-color="primary" id="text-0"></path></svg></g></svg></g></svg></g></svg></g></svg></g></svg></g></svg></g></svg></g></svg><rect width="395.52" height="247.2" fill="none" stroke="none" visibility="hidden"></rect></g></svg></g></svg>