<svg xmlns="http://www.w3.org/2000/svg" version="1.1" xmlns:xlink="http://www.w3.org/1999/xlink" xmlns:svgjs="http://svgjs.dev/svgjs" width="1000" height="1000" viewBox="0 0 1000 1000"><rect width="1000" height="1000" fill="#ffffff"></rect><g transform="matrix(0.7,0,0,0.7,149.57578126921567,395.0702687722962)"><svg viewBox="0 0 396 119" data-background-color="#1ebbd7" preserveAspectRatio="xMidYMid meet" height="300" width="1000" xmlns="http://www.w3.org/2000/svg" xmlns:xlink="http://www.w3.org/1999/xlink"><defs></defs><g id="tight-bounds" transform="matrix(1,0,0,1,0.23998659627227426,-0.03981897096784337)"><svg viewBox="0 0 395.52 119.0796379419357" height="119.0796379419357" width="395.52"><g><svg viewBox="0 0 666.7834837608419 200.7492309665848" height="119.0796379419357" width="395.52"><g><rect width="5.536655939279872" height="200.7492309665848" x="251.23296410616976" y="0" fill="#000000" opacity="1" stroke-width="0" stroke="transparent" fill-opacity="1" class="rect-o-0" data-fill-palette-color="primary" rx="1%" id="o-0" data-palette-color="#ffffff"></rect></g><g transform="matrix(1,0,0,1,271.26348376084195,0.49937619643428377)"><svg viewBox="0 0 395.52 199.75047857371624" height="199.75047857371624" width="395.52"><g><svg viewBox="0 0 395.52 199.75047857371624" height="199.75047857371624" width="395.52"><g><svg viewBox="0 0 395.52 199.75047857371624" height="199.75047857371624" width="395.52"><g transform="matrix(1,0,0,1,0,0)"><svg width="395.52" viewBox="6.7100019454956055 -35.0099983215332 228.68997192382812 112.010009765625" height="199.75047857371624" data-palette-color="#ffffff"><svg></svg><svg></svg><svg></svg><g class="undefined-text-0" data-fill-palette-color="primary" id="text-0"><path d="M24.07-34.94v0c3.16 0 6.303 0.62 9.43 1.86v0l-1.27 3.44c-3.16-1.087-5.92-1.63-8.28-1.63v0c-1.953 0-3.763 0.387-5.43 1.16-1.667 0.767-3.05 1.8-4.15 3.1-1.1 1.293-1.96 2.773-2.58 4.44-0.62 1.667-0.93 3.413-0.93 5.24v0c0 1.887 0.33 3.68 0.99 5.38 0.66 1.7 1.583 3.19 2.77 4.47 1.193 1.273 2.673 2.287 4.44 3.04 1.76 0.747 3.69 1.12 5.79 1.12v0c2.507 0 5.12-0.49 7.84-1.47v0l1.27 3.08c-3.4 1.467-6.787 2.2-10.16 2.2v0c-2.08 0-4.033-0.303-5.86-0.91-1.82-0.6-3.41-1.44-4.77-2.52-1.36-1.087-2.527-2.37-3.5-3.85-0.98-1.48-1.717-3.11-2.21-4.89-0.5-1.787-0.75-3.663-0.75-5.63v0c0-3.333 0.697-6.327 2.09-8.98 1.393-2.653 3.417-4.757 6.07-6.31 2.653-1.56 5.72-2.34 9.2-2.34zM43.24 0v-34.69h4.15v34.69zM55.32-31.03v-3.66h27.35v3.66h-11.6v31.03h-4.15v-31.03zM90.6 0v-34.69h4.15v34.69zM105.13-31.03v-3.66h26.51v2.66l-21.73 28.37h22.39v3.66h-27.91v-2.71l21.32-28.32zM161.18 0h-20.34v-34.69h20.34v3.66h-16.18v11.33h14.84v3.66h-14.84v12.38h16.18zM172.17 0v-34.69h5.25l18.89 29.03v-29.03h4.15v34.69h-5.25l-18.89-29.08v29.08zM225.63-35.01v0c2.673 0 5.547 0.463 8.62 1.39v0l-1.34 3.79c-2.927-0.847-5.467-1.27-7.62-1.27v0c-2.407 0-4.443 0.507-6.11 1.52-1.673 1.02-2.51 2.337-2.51 3.95v0c0 0.893 0.27 1.69 0.81 2.39 0.54 0.7 1.247 1.27 2.12 1.71 0.88 0.44 1.883 0.873 3.01 1.3 1.12 0.433 2.263 0.83 3.43 1.19 1.16 0.353 2.303 0.807 3.43 1.36 1.12 0.553 2.12 1.16 3 1.82 0.88 0.66 1.587 1.52 2.12 2.58 0.54 1.06 0.81 2.257 0.81 3.59v0c0 0.927-0.147 1.85-0.44 2.77-0.293 0.92-0.78 1.83-1.46 2.73-0.687 0.907-1.533 1.7-2.54 2.38-1.013 0.687-2.287 1.24-3.82 1.66-1.54 0.427-3.253 0.64-5.14 0.64-1.887 0-3.627-0.197-5.22-0.59-1.587-0.387-3.363-0.973-5.33-1.76v0l1.42-4.02c4.067 1.513 7.28 2.27 9.64 2.27v0c2.473 0 4.487-0.497 6.04-1.49 1.553-0.993 2.33-2.32 2.33-3.98v0c0-1.107-0.343-2.063-1.03-2.87-0.693-0.807-1.59-1.457-2.69-1.95-1.1-0.5-2.317-0.967-3.65-1.4-1.333-0.427-2.663-0.89-3.99-1.39-1.327-0.493-2.54-1.067-3.64-1.72-1.1-0.647-1.993-1.523-2.68-2.63-0.693-1.113-1.04-2.417-1.04-3.91v0c0-1.333 0.32-2.61 0.96-3.83 0.647-1.227 1.54-2.297 2.68-3.21 1.133-0.92 2.557-1.653 4.27-2.2 1.707-0.547 3.56-0.82 5.56-0.82z" data-fill-palette-color="primary" fill="#000000" opacity="1"></path><path d="M27.17 7.47h-15.94v11.33h14.48v3.66h-14.48v16.04h-4.15v-34.69h20.09zM38.28 38.5v-34.69h4.15v34.69zM78.27 13.33v0c0 1.153-0.137 2.25-0.41 3.29-0.28 1.047-0.713 2.04-1.3 2.98-0.587 0.947-1.397 1.767-2.43 2.46-1.033 0.687-2.24 1.193-3.62 1.52v0l9.79 14.92h-4.64l-9.4-14.45h-6.71v14.45h-4.18v-34.69h12.75c0.58 0 1.107 0.017 1.58 0.05 0.473 0.033 1.08 0.117 1.82 0.25 0.74 0.14 1.397 0.327 1.97 0.56 0.567 0.24 1.163 0.6 1.79 1.08 0.627 0.48 1.147 1.047 1.56 1.7 0.42 0.647 0.763 1.477 1.03 2.49 0.267 1.007 0.4 2.137 0.4 3.39zM59.55 7.45v12.93h5.98c0.827 0 1.557-0.027 2.19-0.08 0.64-0.06 1.387-0.213 2.24-0.46 0.853-0.253 1.56-0.603 2.12-1.05 0.56-0.453 1.04-1.107 1.44-1.96 0.4-0.853 0.6-1.867 0.6-3.04v0c0-0.827-0.107-1.573-0.32-2.24-0.207-0.667-0.473-1.217-0.8-1.65-0.327-0.433-0.727-0.807-1.2-1.12-0.473-0.32-0.93-0.56-1.37-0.72-0.433-0.167-0.92-0.297-1.46-0.39-0.54-0.1-0.983-0.163-1.33-0.19-0.353-0.02-0.723-0.03-1.11-0.03v0zM103.44 3.49v0c2.673 0 5.547 0.463 8.62 1.39v0l-1.34 3.79c-2.933-0.847-5.473-1.27-7.62-1.27v0c-2.407 0-4.447 0.507-6.12 1.52-1.667 1.02-2.5 2.337-2.5 3.95v0c0 0.893 0.27 1.69 0.81 2.39 0.533 0.7 1.24 1.27 2.12 1.71 0.88 0.44 1.883 0.873 3.01 1.3 1.12 0.433 2.263 0.83 3.43 1.19 1.16 0.353 2.303 0.807 3.43 1.36 1.12 0.553 2.12 1.16 3 1.82 0.88 0.66 1.587 1.52 2.12 2.58 0.54 1.06 0.81 2.257 0.81 3.59v0c0 0.927-0.147 1.85-0.44 2.77-0.293 0.92-0.783 1.83-1.47 2.73-0.68 0.907-1.527 1.7-2.54 2.38-1.007 0.687-2.28 1.24-3.82 1.66-1.533 0.427-3.247 0.64-5.14 0.64-1.887 0-3.623-0.197-5.21-0.59-1.587-0.387-3.363-0.973-5.33-1.76v0l1.41-4.02c4.073 1.513 7.29 2.27 9.65 2.27v0c2.473 0 4.487-0.497 6.04-1.49 1.553-0.993 2.33-2.32 2.33-3.98v0c0-1.107-0.347-2.063-1.04-2.87-0.687-0.807-1.58-1.457-2.68-1.95-1.1-0.5-2.317-0.967-3.65-1.4-1.333-0.427-2.663-0.89-3.99-1.39-1.327-0.493-2.54-1.067-3.64-1.72-1.1-0.647-1.997-1.523-2.69-2.63-0.687-1.113-1.03-2.417-1.03-3.91v0c0-1.333 0.32-2.61 0.96-3.83 0.64-1.227 1.53-2.297 2.67-3.21 1.14-0.92 2.567-1.653 4.28-2.2 1.707-0.547 3.56-0.82 5.56-0.82zM118.7 7.47v-3.66h27.34v3.66h-11.59v31.03h-4.15v-31.03z" data-fill-palette-color="primary" fill="#000000" opacity="1"></path><path d="M17.92 45.48h-6.69v11.65c0.307-0.02 0.843-0.033 1.61-0.04 0.767-0.007 1.36-0.013 1.78-0.02 0.427-0.013 1.023-0.047 1.79-0.1 0.76-0.06 1.373-0.127 1.84-0.2 0.467-0.073 1.027-0.187 1.68-0.34 0.66-0.153 1.2-0.333 1.62-0.54 0.413-0.2 0.85-0.46 1.31-0.78 0.467-0.313 0.83-0.667 1.09-1.06 0.26-0.393 0.477-0.86 0.65-1.4 0.167-0.547 0.25-1.147 0.25-1.8v0c0-0.487-0.047-0.95-0.14-1.39-0.1-0.44-0.303-0.913-0.61-1.42-0.313-0.5-0.713-0.93-1.2-1.29-0.487-0.36-1.157-0.66-2.01-0.9-0.86-0.247-1.85-0.37-2.97-0.37zM11.23 60.35v0 12.99h6.47c0.587 0 1.08-0.003 1.48-0.01 0.4-0.013 0.973-0.063 1.72-0.15 0.747-0.093 1.383-0.217 1.91-0.37 0.533-0.153 1.123-0.39 1.77-0.71 0.653-0.313 1.18-0.69 1.58-1.13 0.4-0.44 0.737-1.007 1.01-1.7 0.28-0.687 0.42-1.47 0.42-2.35v0c0-2.167-0.84-3.86-2.52-5.08-1.673-1.22-3.927-1.83-6.76-1.83v0c-0.307 0-2.667 0.113-7.08 0.34zM7.08 77v-34.69h12.23c1.187 0 2.273 0.127 3.26 0.38 0.987 0.247 1.8 0.567 2.44 0.96 0.647 0.393 1.217 0.857 1.71 1.39 0.5 0.54 0.88 1.06 1.14 1.56 0.26 0.507 0.47 1.047 0.63 1.62 0.167 0.567 0.27 1.033 0.31 1.4 0.04 0.367 0.06 0.713 0.06 1.04v0c0 1.413-0.48 2.823-1.44 4.23-0.96 1.407-1.977 2.317-3.05 2.73v0c2.147 0.387 3.907 1.423 5.28 3.11 1.373 1.68 2.06 3.597 2.06 5.75v0c0 0.5-0.043 1.027-0.13 1.58-0.087 0.553-0.263 1.18-0.53 1.88-0.26 0.7-0.593 1.37-1 2.01-0.407 0.633-0.96 1.263-1.66 1.89-0.7 0.627-1.5 1.167-2.4 1.62-0.907 0.46-2.013 0.83-3.32 1.11-1.313 0.287-2.75 0.43-4.31 0.43v0zM37.94 77l12.33-34.69h4.71l12.33 34.69h-4.2l-3.52-10.08h-14.3l-3.52 10.08zM58.33 63.28l-5.89-16.92-5.91 16.92zM75.61 77v-34.69h5.25l18.9 29.03v-29.03h4.15v34.69h-5.25l-18.9-29.08v29.08zM116.11 77v-34.69h4.15v34.69zM120.85 59.2l14.7-16.89h5.2l-14.68 16.55 15.6 18.14h-5.34z" data-fill-palette-color="primary" fill="#000000" opacity="1"></path></g></svg></g></svg></g></svg></g></svg></g><g transform="matrix(1,0,0,1,0,0.49937619643428377)"><svg viewBox="0 0 236.73910039077742 199.75047857371624" height="199.75047857371624" width="236.73910039077742"><g><svg xmlns="http://www.w3.org/2000/svg" viewBox="1.9999961853027344 1.9992424249649048 96 81.0007553100586" x="0" y="0" height="199.75047857371624" width="236.73910039077742" class="icon-icon-0" data-fill-palette-color="accent" id="icon-0"><path d="M98 50a3 3 0 0 1-3 3H5a3 3 0 0 1 0-6H95A3 3 0 0 1 98 50ZM95 77H5a3 3 0 0 0 0 6H95a3 3 0 0 0 0-6ZM2 20a17.99 17.99 0 0 1 35.729-3H95a3 3 0 0 1 0 6H37.729A17.99 17.99 0 0 1 2 20Zm6 0A12 12 0 1 0 20 8 12.013 12.013 0 0 0 8 20Z" fill="#000000" data-fill-palette-color="accent"></path></svg></g></svg></g></svg></g></svg><rect width="395.52" height="119.0796379419357" fill="none" stroke="none" visibility="hidden"></rect></g></svg></g></svg>