<svg xmlns="http://www.w3.org/2000/svg" version="1.1" xmlns:xlink="http://www.w3.org/1999/xlink" xmlns:svgjs="http://svgjs.dev/svgjs" width="1000" height="1000" viewBox="0 0 1000 1000"><rect width="1000" height="1000" fill="#ffffff"></rect><g transform="matrix(0.7,0,0,0.7,149.84897959183667,150.19913061224486)"><svg viewBox="0 0 343 343" data-background-color="#ffffff" preserveAspectRatio="xMidYMid meet" height="999" width="1000" xmlns="http://www.w3.org/2000/svg" xmlns:xlink="http://www.w3.org/1999/xlink"><defs></defs><g id="tight-bounds" transform="matrix(1,0,0,1,0.0740000000000407,0.07400000000001228)"><svg viewBox="0 0 342.85155851775386 342.85155851775386" height="342.85155851775386" width="342.85155851775386"><g><svg></svg></g><g><svg viewBox="0 0 342.85155851775386 342.85155851775386" height="342.85155851775386" width="342.85155851775386"><g><path d="M0 171.426c0-94.676 76.75-171.426 171.426-171.426 94.676 0 171.426 76.75 171.426 171.426 0 94.676-76.75 171.426-171.426 171.426-94.676 0-171.426-76.75-171.426-171.426zM171.426 340.06c93.134 0 168.634-75.5 168.634-168.634 0-93.134-75.5-168.634-168.634-168.634-93.134 0-168.634 75.5-168.634 168.634 0 93.134 75.5 168.634 168.634 168.634z" data-fill-palette-color="tertiary" fill="#2257bf" stroke="transparent"></path><ellipse rx="164.56874808852186" ry="164.56874808852186" cx="171.42577925887693" cy="171.42577925887693" fill="#2257bf" stroke="transparent" stroke-width="0" fill-opacity="1" data-fill-palette-color="tertiary"></ellipse></g><g transform="matrix(1,0,0,1,64.84655864529837,130.9010437744593)"><svg viewBox="0 0 213.1584412271571 81.04947096883527" height="81.04947096883527" width="213.1584412271571"><g><svg viewBox="0 0 213.1584412271571 81.04947096883527" height="81.04947096883527" width="213.1584412271571"><g><svg viewBox="0 0 213.1584412271571 81.04947096883527" height="81.04947096883527" width="213.1584412271571"><g transform="matrix(1,0,0,1,0,50.091824602253375)"><svg viewBox="0 0 213.1584412271571 30.957646366581898" height="30.957646366581898" width="213.1584412271571"><g><svg viewBox="0 0 213.1584412271571 30.957646366581898" height="30.957646366581898" width="213.1584412271571"><g><svg viewBox="0 0 213.1584412271571 30.957646366581898" height="30.957646366581898" width="213.1584412271571"><g transform="matrix(1,0,0,1,0,0)"><svg width="213.1584412271571" viewBox="3.0999999046325684 -37.54999923706055 258.5099792480469 37.54999923706055" height="30.957646366581898" data-palette-color="#ffffff"><path d="M7.75 0L3.1 0 3.1-35 21.7-35 21.7-30.35 7.75-30.35 7.75-21.7 17.05-21.7 16-17.05 7.75-17.05 7.75 0ZM25.5 0L20.8 0 20.8-25 31.25-25Q32.75-25 33.82-23.93 34.9-22.85 34.9-21.35L34.9-21.35 34.9-15.9 30.2-16.95 30.2-18.45Q30.2-19.2 29.67-19.75 29.15-20.3 28.4-20.3L28.4-20.3 25.5-20.3 25.5 0ZM51 0L40.55 0Q39.05 0 37.97-1.07 36.9-2.15 36.9-3.65L36.9-3.65 36.9-21.4Q36.9-22.9 37.97-23.95 39.05-25 40.55-25L40.55-25 47.35-25Q48.9-25 49.95-23.95 51-22.9 51-21.4L51-21.4 51-13.8Q51-12.3 49.95-11.23 48.9-10.15 47.35-10.15L47.35-10.15 41.6-10.15 41.6-6.5Q41.6-5.75 42.12-5.23 42.65-4.7 43.45-4.7L43.45-4.7 49.95-4.7 51 0ZM41.6-18.5L41.6-14.85 44.5-14.85Q45.25-14.85 45.77-15.38 46.3-15.9 46.3-16.65L46.3-16.65 46.3-18.5Q46.3-19.25 45.77-19.78 45.25-20.3 44.5-20.3L44.5-20.3 43.45-20.3Q42.65-20.3 42.12-19.78 41.6-19.25 41.6-18.5L41.6-18.5ZM67.59 0L57.14 0Q55.64 0 54.57-1.07 53.49-2.15 53.49-3.65L53.49-3.65 53.49-21.4Q53.49-22.9 54.57-23.95 55.64-25 57.14-25L57.14-25 63.94-25Q65.49-25 66.54-23.95 67.59-22.9 67.59-21.4L67.59-21.4 67.59-13.8Q67.59-12.3 66.54-11.23 65.49-10.15 63.94-10.15L63.94-10.15 58.19-10.15 58.19-6.5Q58.19-5.75 58.72-5.23 59.24-4.7 60.04-4.7L60.04-4.7 66.54-4.7 67.59 0ZM58.19-18.5L58.19-14.85 61.09-14.85Q61.84-14.85 62.37-15.38 62.89-15.9 62.89-16.65L62.89-16.65 62.89-18.5Q62.89-19.25 62.37-19.78 61.84-20.3 61.09-20.3L61.09-20.3 60.04-20.3Q59.24-20.3 58.72-19.78 58.19-19.25 58.19-18.5L58.19-18.5ZM94.64 0L83.29 0Q81.89 0 80.79-1.05 79.69-2.1 79.69-3.6L79.69-3.6 79.69-31.4Q79.69-32.85 80.79-33.93 81.89-35 83.29-35L83.29-35 94.64-35Q96.19-35 97.21-33.93 98.24-32.85 98.24-31.4L98.24-31.4 98.24-24.9 93.59-23.85 93.59-28.55Q93.59-29.25 93.11-29.8 92.64-30.35 91.84-30.35L91.84-30.35 86.14-30.35Q85.44-30.35 84.89-29.8 84.34-29.25 84.34-28.55L84.34-28.55 84.34-6.45Q84.34-5.65 84.89-5.15 85.44-4.65 86.14-4.65L86.14-4.65 91.84-4.65Q92.64-4.65 93.11-5.15 93.59-5.65 93.59-6.45L93.59-6.45 93.59-10.1 98.24-11.2 98.24-3.6Q98.24-2.1 97.21-1.05 96.19 0 94.64 0L94.64 0ZM106.54-32.8L101.84-31.7 101.84-36.4 106.54-37.5 106.54-32.8ZM106.64 0L101.94 0 101.94-23.9 106.64-25 106.64 0ZM115.33 0L110.63 0 110.63-36.4 115.33-37.45 115.33-25 121.28-25 120.18-20.3 115.33-20.3 115.33 0ZM127.48-32.8L122.78-31.7 122.78-36.4 127.48-37.5 127.48-32.8ZM127.58 0L122.88 0 122.88-23.9 127.58-25 127.58 0ZM145.18 0L131.08 0 138.68-20.3 131.08-20.3 131.08-25 145.18-25 137.48-4.7 145.18-4.7 145.18 0ZM162.28 0L151.83 0Q150.33 0 149.25-1.07 148.18-2.15 148.18-3.65L148.18-3.65 148.18-21.4Q148.18-22.9 149.25-23.95 150.33-25 151.83-25L151.83-25 158.63-25Q160.18-25 161.23-23.95 162.28-22.9 162.28-21.4L162.28-21.4 162.28-13.8Q162.28-12.3 161.23-11.23 160.18-10.15 158.63-10.15L158.63-10.15 152.88-10.15 152.88-6.5Q152.88-5.75 153.4-5.23 153.93-4.7 154.73-4.7L154.73-4.7 161.23-4.7 162.28 0ZM152.88-18.5L152.88-14.85 155.78-14.85Q156.53-14.85 157.05-15.38 157.58-15.9 157.58-16.65L157.58-16.65 157.58-18.5Q157.58-19.25 157.05-19.78 156.53-20.3 155.78-20.3L155.78-20.3 154.73-20.3Q153.93-20.3 153.4-19.78 152.88-19.25 152.88-18.5L152.88-18.5ZM170.17 0L165.47 0 165.47-25 175.92-25Q177.37-25 178.47-23.95 179.57-22.9 179.57-21.4L179.57-21.4 179.57 0 174.87 0 174.87-18.5Q174.87-19.3 174.32-19.8 173.77-20.3 173.07-20.3L173.07-20.3 170.17-20.3 170.17 0ZM207.32 0L192.27 0 192.27-35.05 204.97-35.05Q206.52-35.05 207.57-33.98 208.62-32.9 208.62-31.45L208.62-31.45 208.62-21.5Q209.62-21.15 210.27-20.2 210.92-19.25 210.92-18.15L210.92-18.15 210.92-3.65Q210.92-2.1 209.87-1.05 208.82 0 207.32 0L207.32 0ZM196.97-30.4L196.97-21.7 202.12-21.7Q202.87-21.7 203.42-22.25 203.97-22.8 203.97-23.5L203.97-23.5 203.97-28.6Q203.97-29.35 203.42-29.88 202.87-30.4 202.12-30.4L202.12-30.4 196.97-30.4ZM196.97-17.1L196.97-4.65 204.52-4.65Q205.22-4.65 205.74-5.18 206.27-5.7 206.27-6.5L206.27-6.5 206.27-15.3Q206.27-16 205.74-16.55 205.22-17.1 204.52-17.1L204.52-17.1 196.97-17.1ZM227.52 0L217.07 0Q215.57 0 214.49-1.05 213.42-2.1 213.42-3.65L213.42-3.65 213.42-11.2Q213.42-12.7 214.49-13.78 215.57-14.85 217.07-14.85L217.07-14.85 220.97-14.85Q221.77-14.85 222.29-15.38 222.82-15.9 222.82-16.65L222.82-16.65 222.82-18.5Q222.82-19.25 222.29-19.78 221.77-20.3 220.97-20.3L220.97-20.3 215.57-20.3 216.62-25 223.87-25Q225.37-25 226.44-23.93 227.52-22.85 227.52-21.35L227.52-21.35 227.52 0ZM219.92-4.7L219.92-4.7 222.82-4.7 222.82-10.15 219.92-10.15Q219.17-10.15 218.64-9.63 218.12-9.1 218.12-8.35L218.12-8.35 218.12-6.5Q218.12-5.75 218.64-5.23 219.17-4.7 219.92-4.7ZM234.91 0L230.21 0 230.21-25 240.66-25Q242.11-25 243.21-23.95 244.31-22.9 244.31-21.4L244.31-21.4 244.31 0 239.61 0 239.61-18.5Q239.61-19.3 239.06-19.8 238.51-20.3 237.81-20.3L237.81-20.3 234.91-20.3 234.91 0ZM252.21 0L247.51 0 247.51-36.45 252.21-37.55 252.21-12.5 256.91-25 261.61-25 256.91-12.5 261.61 0 256.91 0 254.56-6.3 252.21 0Z" opacity="1" transform="matrix(1,0,0,1,0,0)" fill="#ffffff" class="undefined-text-0" data-fill-palette-color="quaternary" id="text-0"></path></svg></g></svg></g></svg></g></svg></g><g transform="matrix(1,0,0,1,73.58052825246563,0)"><svg viewBox="0 0 65.99738472222585 42.783467278616186" height="42.783467278616186" width="65.99738472222585"><g><svg xmlns="http://www.w3.org/2000/svg" xmlns:xlink="http://www.w3.org/1999/xlink" version="1.1" x="0" y="0" viewBox="0 0 100 64.82600402832031" enable-background="new 0 0 100 64.827" xml:space="preserve" width="65.99738472222585" height="42.783467278616186" class="icon-icon-0" data-fill-palette-color="quaternary" id="icon-0"><path d="M39.609 13.303c3.662 0 6.637-2.975 6.654-6.65C46.246 2.988 43.271 0.014 39.609 0c-3.678 0.014-6.653 2.988-6.65 6.653C32.956 10.329 35.931 13.303 39.609 13.303z" fill="#ffffff" data-fill-palette-color="quaternary"></path><path d="M15.35 48.254V27.853l11.881-6.405v6.049c-0.006 1.15 0.31 1.646 0.748 2.063l6.794 7.505c3.05 3.09 7.423-1.172 4.66-4.267l-6.014-6.652V13.482c-0.042-3.895-5.306-7.453-9.069-5.513l-15.9 8.572c-2.104 1.21-2.945 3.28-2.953 5.405v26.379C5.505 55.523 15.353 55.525 15.35 48.254z" fill="#ffffff" data-fill-palette-color="quaternary"></path><path d="M60.903 13.303c3.68 0 6.653-2.975 6.651-6.65C67.557 2.988 64.583 0.014 60.903 0c-3.66 0.014-6.637 2.988-6.651 6.653C54.267 10.329 57.243 13.303 60.903 13.303z" fill="#ffffff" data-fill-palette-color="quaternary"></path><path d="M67.093 26.146l-6.012 6.652c-2.763 3.095 1.608 7.357 4.66 4.267l6.793-7.505c0.44-0.417 0.756-0.913 0.746-2.063v-6.049l11.883 6.405v20.402c-0.004 7.271 9.847 7.269 9.853 0.07V21.946c-0.006-2.125-0.851-4.195-2.951-5.405l-15.9-8.572c-3.764-1.94-9.025 1.618-9.071 5.513V26.146z" fill="#ffffff" data-fill-palette-color="quaternary"></path><path d="M75 53.715l-7.266-3.633-0.284-0.142c-0.14-0.048-0.281-0.089-0.437-0.089-0.343 0-0.646 0.138-0.889 0.344l-0.264 0.315L55.556 62.048h-2.301l3.404-8.333h-5.433-2.453H43.34l3.404 8.333h-2.3L34.139 50.511l-0.265-0.315c-0.243-0.206-0.545-0.344-0.888-0.344-0.155 0-0.297 0.041-0.437 0.089l-0.283 0.142L25 53.715H0v11.111h50 50V53.715H75z" fill="#ffffff" data-fill-palette-color="quaternary"></path><path d="M48.625 20.382c0 11.111 0 22.222 0 33.333 0 1.772 2.75 1.772 2.75 0 0-11.111 0-22.223 0-33.333C51.375 18.609 48.625 18.609 48.625 20.382L48.625 20.382z" fill="#ffffff" data-fill-palette-color="quaternary"></path><path d="M47.564 44.574c-2.167-2.169-5.892-1.964-5.892-1.964s-0.205 3.724 1.964 5.892c2.17 2.17 5.892 1.964 5.892 1.964S49.734 46.742 47.564 44.574z" fill="#ffffff" data-fill-palette-color="quaternary"></path><path d="M47.564 30.685c-2.167-2.169-5.892-1.964-5.892-1.964s-0.205 3.724 1.964 5.892c2.17 2.17 5.892 1.964 5.892 1.964S49.734 32.854 47.564 30.685z" fill="#ffffff" data-fill-palette-color="quaternary"></path><path d="M52.436 39.018c2.168-2.169 5.893-1.964 5.893-1.964s0.205 3.725-1.964 5.892c-2.171 2.17-5.892 1.964-5.892 1.964S50.266 41.187 52.436 39.018z" fill="#ffffff" data-fill-palette-color="quaternary"></path><path d="M52.436 25.129c2.168-2.169 5.893-1.964 5.893-1.964s0.205 3.725-1.964 5.892c-2.171 2.17-5.892 1.964-5.892 1.964S50.266 27.298 52.436 25.129z" fill="#ffffff" data-fill-palette-color="quaternary"></path></svg></g></svg></g><g></g></svg></g></svg></g></svg></g></svg></g></svg><rect width="342.85155851775386" height="342.85155851775386" fill="none" stroke="none" visibility="hidden"></rect></g></svg></g></svg>