<svg xmlns="http://www.w3.org/2000/svg" version="1.1" xmlns:xlink="http://www.w3.org/1999/xlink" xmlns:svgjs="http://svgjs.dev/svgjs" width="1000" height="1000" viewBox="0 0 1000 1000"><rect width="1000" height="1000" fill="#ffffff"></rect><g transform="matrix(0.7,0,0,0.7,149.57575757575756,277.13504326575753)"><svg viewBox="0 0 396 253" data-background-color="#ffffff" preserveAspectRatio="xMidYMid meet" height="638" width="1000" xmlns="http://www.w3.org/2000/svg" xmlns:xlink="http://www.w3.org/1999/xlink"><defs></defs><g id="tight-bounds" transform="matrix(1,0,0,1,0.2400000000000091,-0.2464530815867363)"><svg viewBox="0 0 395.52 247.2" height="247.2" width="395.52"><g><svg></svg></g><g><svg viewBox="0 0 395.52 247.2" height="247.2" width="395.52"><g transform="matrix(6.788483752682539, 0, 0, 6.788483752682539, 44.238441486845005, 1)"><svg xmlns="http://www.w3.org/2000/svg" viewBox="9.400001525878906 13.750005722045898 45.22999954223633 36.1199951171875" x="0" y="0" height="36.1199951171875" width="45.22999954223633" class="icon-none" data-fill-palette-color="accent" id="none"><path d="M42.61 13.77L38.36 18a4.68 4.68 0 0 0-0.78-0.63l-0.09-0.05a5 5 0 0 0-2.66-0.78 5.14 5.14 0 0 0-1.87 0.36h0a4.37 4.37 0 0 0-0.68 0.35l-0.2 0.11-0.1 0.07a5 5 0 0 0-6.33 0.56l-4.25-4.24-12 12L13.62 30 15 31.45a1 1 0 0 0 1.41 0 1 1 0 0 0 0-1.41l4.6-4.6 1.77-1.77 3.53-3.53 0.71-0.71a3 3 0 0 1 3.38-0.55l-4.79 4.79a3 3 0 0 0 0 4.24l0.7 0.71a3 3 0 0 0 4.25 0l4.95-4.95 10.4 10.4c1 1 1.16 2.08 0.91 2.33l-0.71 0.71a0.89 0.89 0 0 1-0.74 0 3.54 3.54 0 0 1-1.58-1h0L40.32 32.7h0a1 1 0 0 0-1.42 1.42h0l3.5 3.5c1 1 1.16 2.08 0.91 2.32l-0.7 0.71a0.91 0.91 0 0 1-0.74 0 3.58 3.58 0 0 1-1.59-1l-3.5-3.5a1 1 0 0 0-1.41 0 1 1 0 0 0 0 1.42l3.49 3.49c1 1 1.17 2.08 0.92 2.33l-0.71 0.71c-0.25 0.24-1.32 0.09-2.33-0.92l-3.5-3.49a1 1 0 0 0-1.41 0 0.77 0.77 0 0 0-0.14 0.21l-0.22-0.07A3 3 0 0 0 30.73 37l-0.71-0.7a3 3 0 0 0-1.25-0.74A3 3 0 0 0 28 32.6l-0.71-0.7a3 3 0 0 0-3.9-0.28 3.06 3.06 0 0 0-0.6-0.88L22.1 30a3 3 0 0 0-4.24 0l-1.42 1.41a3 3 0 0 0 0 4.24l0.71 0.71a3 3 0 0 0 2 0.86 2.93 2.93 0 0 0 0.86 2l0.71 0.7h0a3 3 0 0 0 2 0.87 3 3 0 0 0 0.86 2l0.71 0.71a2.93 2.93 0 0 0 2 0.86 2.93 2.93 0 0 0 0.86 2l0.71 0.71h0a3 3 0 0 0 2.12 0.87 2.86 2.86 0 0 0 1.28-0.3l0.63 0.63a5 5 0 0 0 3.39 1.6A2.44 2.44 0 0 0 37 49.13l0.71-0.71a2.56 2.56 0 0 0 0.64-2.2 3.05 3.05 0 0 0 0.41 0.05 2.48 2.48 0 0 0 1.78-0.68l0.7-0.71a2.52 2.52 0 0 0 0.64-2.19 3.05 3.05 0 0 0 0.41 0.05A2.45 2.45 0 0 0 44 42.06l0.71-0.71a2.56 2.56 0 0 0 0.64-2.2 3.05 3.05 0 0 0 0.41 0.05 2.46 2.46 0 0 0 1.78-0.68l0.7-0.71c1.19-1.19 0.79-3.45-0.91-5.15l-0.5-0.5L37 22.26h0a1 1 0 0 0 0-1.42 1 1 0 0 0-1.41 0l-6.37 6.37a1 1 0 0 1-1.41 0l-0.71-0.71a1 1 0 0 1 0-1.41l5.66-5.66a3.06 3.06 0 0 1 4.24 0l0.71 0.71 3.53 3.53L43 25.44l4.6 4.6-0.71 0.7a1 1 0 0 0 1.41 1.42l0.71-0.71L50.38 30l4.25-4.25Zm-30.41 12l9.19-9.19 2.83 2.83L19.63 24l-1.77 1.77L15 28.62Zm5.66 8.49a1 1 0 0 1 0-1.42l1.41-1.41a1 1 0 0 1 1.42 0l0.7 0.71a1 1 0 0 1 0 1.41L20 35a1 1 0 0 1-1.41 0Zm3.53 3.53a1 1 0 0 1 0-1.41L22.81 35l1.67-1.67a1 1 0 0 1 1.42 0l0.7 0.71a1 1 0 0 1 0 1.41l-0.82 0.83h0l-2.27 2.26a1 1 0 0 1-1.41 0Zm3.54 3.54a1 1 0 0 1 0-1.42l2.26-2.26a1 1 0 0 1 0.71-0.29 1 1 0 0 1 0.71 0.29l0.7 0.71a1 1 0 0 1 0 1.41l-0.85 0.85-1.41 1.42a1 1 0 0 1-1.41 0Zm4.24 4.24l-0.71-0.71a1 1 0 0 1 0-1.41l1.42-1.41a1 1 0 0 1 1.41 0l0.71 0.7a1 1 0 0 1 0 1.42l-1.41 1.41A1 1 0 0 1 29.17 45.59Zm6.16-0.91c1 1 1.16 2.08 0.91 2.33l-0.7 0.7a0.87 0.87 0 0 1-0.74 0 3.49 3.49 0 0 1-1.59-1l-0.5-0.5 0.7-0.71a3 3 0 0 0 0.87-2l1 1ZM49 28.62l-2.83-2.83L44.37 24l-4.59-4.59 2.83-2.83 9.19 9.19Z" fill="#ffd700" data-fill-palette-color="accent"></path></svg></g><rect width="348.05760000000004" height="69.68613644395788" fill="#ffffff" y="88.75693177802106" x="23.731199999999973" data-fill-palette-color="quaternary"></rect><g transform="matrix(1,0,0,1,39.55199999999999,99.93188133971292)"><svg viewBox="0 0 316.416 47.336237320574156" height="47.336237320574156" width="316.416"><g><svg viewBox="0 0 316.416 47.336237320574156" height="47.336237320574156" width="316.416"><g><svg viewBox="0 0 316.416 47.336237320574156" height="47.336237320574156" width="316.416"><g><svg viewBox="0 0 316.416 47.336237320574156" height="47.336237320574156" width="316.416"><g><svg viewBox="0 0 316.416 47.336237320574156" height="47.336237320574156" width="316.416"><g><svg viewBox="0 0 316.416 47.336237320574156" height="47.336237320574156" width="316.416"><g transform="matrix(1,0,0,1,0,0)"><svg width="316.416" viewBox="3 -35.5 313.4700012207031 46.900001525878906" height="47.336237320574156" data-palette-color="#ffd700"><path d="M19.65-4.4L19.65-4.4 23.25-4.4 23.25-14.9 18.1-14.9 18.1-19.3 27.95-19.3 27.95 0 20.25 0Q12.2 0 7.63-4.58 3.05-9.15 3-17.5L3-17.5Q3.05-25.85 7.63-30.43 12.2-35 20.25-35L20.25-35 26-35 26-30.6 19.65-30.6Q14.1-30.6 11.13-26.93 8.15-23.25 8.05-17.5L8.05-17.5Q8.15-11.75 11.13-8.08 14.1-4.4 19.65-4.4ZM36.45-20.85L36.45-20.85Q39.95-24.5 45.2-24.5L45.2-24.5Q47.75-24.5 49.97-23.53 52.2-22.55 53.87-20.85 55.55-19.15 56.5-16.88 57.45-14.6 57.45-12L57.45-12Q57.45-9.4 56.52-7.13 55.6-4.85 53.95-3.15 52.3-1.45 50.05-0.48 47.8 0.5 45.2 0.5L45.2 0.5Q42.55 0.5 40.32-0.48 38.1-1.45 36.45-3.15 34.8-4.85 33.87-7.13 32.95-9.4 32.95-12L32.95-12Q32.95-17.3 36.45-20.85ZM45.2-20.3L45.2-20.3Q41.7-20.3 39.57-18 37.45-15.7 37.45-12 37.45-8.3 39.57-6 41.7-3.7 45.2-3.7L45.2-3.7Q48.75-3.7 50.85-6.03 52.95-8.35 52.95-12 52.95-15.65 50.85-17.98 48.75-20.3 45.2-20.3ZM62.7-9.5L62.7-9.5 62.7-35 67.2-35 67.2-9.5Q67.2-7.7 67.62-6.58 68.05-5.45 68.95-4.98 69.85-4.5 70.7-4.35 71.55-4.2 72.95-4.2L72.95-4.2 72.95 0Q67.35 0 65.02-2.15 62.7-4.3 62.7-9.5ZM94.94-4.2L94.94-35 99.44-35 99.44 0 87.69 0Q82.24 0 78.84-3.48 75.44-6.95 75.44-12.25L75.44-12.25Q75.44-17.45 78.97-20.98 82.49-24.5 87.34-24.5L87.34-24.5Q90.44-24.5 93.14-23L93.14-23 93.14-18.5Q90.64-20.3 87.34-20.3L87.34-20.3Q84.34-20.3 82.27-18.07 80.19-15.85 80.19-12.25L80.19-12.25Q80.19-8.6 82.17-6.4 84.14-4.2 87.69-4.2L87.69-4.2 94.94-4.2ZM121.84-5.25L121.84-5.25 124.84-2.3Q121.39 0.5 116.94 0.5L116.94 0.5Q111.39 0.5 108.04-3.08 104.69-6.65 104.69-12L104.69-12Q104.69-17.25 108.22-20.88 111.74-24.5 116.94-24.5L116.94-24.5Q121.39-24.5 124.84-21.7L124.84-21.7 121.89-18.7Q119.79-20.3 116.94-20.3L116.94-20.3Q113.49-20.3 111.47-18.03 109.44-15.75 109.44-12 109.44-8.25 111.47-5.98 113.49-3.7 116.94-3.7L116.94-3.7Q119.84-3.7 121.84-5.25ZM131.84-20.85L131.84-20.85Q135.34-24.5 140.59-24.5L140.59-24.5Q143.14-24.5 145.36-23.53 147.59-22.55 149.26-20.85 150.94-19.15 151.89-16.88 152.84-14.6 152.84-12L152.84-12Q152.84-9.4 151.91-7.13 150.99-4.85 149.34-3.15 147.69-1.45 145.44-0.48 143.19 0.5 140.59 0.5L140.59 0.5Q137.94 0.5 135.71-0.48 133.49-1.45 131.84-3.15 130.19-4.85 129.26-7.13 128.34-9.4 128.34-12L128.34-12Q128.34-17.3 131.84-20.85ZM140.59-20.3L140.59-20.3Q137.09-20.3 134.96-18 132.84-15.7 132.84-12 132.84-8.3 134.96-6 137.09-3.7 140.59-3.7L140.59-3.7Q144.14-3.7 146.24-6.03 148.34-8.35 148.34-12 148.34-15.65 146.24-17.98 144.14-20.3 140.59-20.3ZM161.74 0L157.34 0 157.34-13.65Q157.34-19.4 159.49-21.6L159.49-21.6Q160.54-22.7 162.04-23.25 163.54-23.8 164.66-23.9 165.79-24 167.74-24L167.74-24 172.14-24 172.14-19.8 166.84-19.8Q165.84-19.8 165.29-19.75 164.74-19.7 163.99-19.4 163.24-19.1 162.69-18.45L162.69-18.45Q161.74-17.25 161.74-13.65L161.74-13.65 161.74 0ZM179.88 11.4L175.38 11.4 175.38-12Q175.38-14.6 176.33-16.9 177.28-19.2 178.93-20.88 180.58-22.55 182.83-23.53 185.08-24.5 187.63-24.5L187.63-24.5Q190.18-24.5 192.41-23.53 194.63-22.55 196.31-20.85 197.98-19.15 198.93-16.88 199.88-14.6 199.88-12L199.88-12Q199.88-9.4 198.96-7.13 198.03-4.85 196.38-3.15 194.73-1.45 192.48-0.48 190.23 0.5 187.63 0.5L187.63 0.5Q184.43 0.5 181.68-1L181.68-1 181.68-5.5Q184.13-3.7 187.48-3.7L187.48-3.7Q189.28-3.7 190.76-4.33 192.23-4.95 193.26-6.05 194.28-7.15 194.83-8.68 195.38-10.2 195.38-12L195.38-12Q195.38-13.8 194.83-15.33 194.28-16.85 193.28-17.95 192.28-19.05 190.86-19.68 189.43-20.3 187.63-20.3L187.63-20.3Q185.88-20.3 184.46-19.7 183.03-19.1 182.01-18 180.98-16.9 180.43-15.38 179.88-13.85 179.88-12L179.88-12 179.88 11.4ZM221.68-23.75L221.68 0 217.03 0 217.03-23.85Q217.03-29 220.35-32.25 223.68-35.5 228.58-35.5L228.58-35.5Q233.98-35.5 236.7-32.77 239.43-30.05 239.43-26.1L239.43-26.1Q239.43-21.05 234.73-18.85L234.73-18.85 234.73-18.65Q241.18-16.8 241.18-9.7L241.18-9.7Q241.18 0 229.73 0L229.73 0 223.48 0 223.48-4.4 229.68-4.4Q233.13-4.4 234.73-5.8 236.33-7.2 236.33-10.3L236.33-10.3Q236.33-13 234.6-14.45 232.88-15.9 229.93-15.9L229.93-15.9 224.98-15.9 224.98-20.05 228.18-20.05Q230.88-20.05 232.8-21.53 234.73-23 234.73-25.5L234.73-25.5Q234.73-27.9 233.25-29.5 231.78-31.1 228.48-31.1L228.48-31.1Q225.48-31.1 223.58-29.23 221.68-27.35 221.68-23.75L221.68-23.75ZM259.78-14.1L259.78-14.1 259.78-9.6Q257.88-11.05 255.13-11.05L255.13-11.05Q252.78-11.05 251.48-10.13 250.18-9.2 250.18-7.5L250.18-7.5Q250.18-4.2 255.08-4.2L255.08-4.2 261.68-4.2 261.68-13.75Q261.68-19.8 255.78-19.8L255.78-19.8 247.78-19.8 247.78-24 256.03-24Q260.88-24 263.48-21.6 266.08-19.2 266.08-14.7L266.08-14.7 266.08 0 254.93 0Q250.68 0 248.18-1.9 245.68-3.8 245.68-7.45 245.68-11.1 248.33-13 250.98-14.9 254.98-14.9L254.98-14.9Q257.23-14.9 259.78-14.1ZM271.82 0L271.82-24 280.47-24Q286.02-24 288.42-22.35L288.42-22.35Q290.57-20.9 291.15-18.88 291.72-16.85 291.72-13.55L291.72-13.55 291.72 0 287.32 0 287.32-13.5Q287.32-14.4 287.27-15.03 287.22-15.65 286.92-16.63 286.62-17.6 286.07-18.23 285.52-18.85 284.47-19.33 283.42-19.8 281.92-19.8L281.92-19.8 276.22-19.8 276.22 0 271.82 0ZM306.32-14.45L311.52-24 316.37-24 310.32-13.55Q316.47-11.9 316.47-3.6L316.47-3.6 316.47 0 312.07 0 312.07-3.65Q312.07-7 310.1-8.83 308.12-10.65 304.47-10.65L304.47-10.65Q303.32-10.65 302.12-10.5L302.12-10.5 302.12 0 297.72 0 297.72-35 302.12-35 302.12-14.45Q304.22-14.75 306.32-14.45L306.32-14.45Z" opacity="1" transform="matrix(1,0,0,1,0,0)" fill="#ffd700" class="undefined-text-0" data-fill-palette-color="primary" id="text-0"></path></svg></g></svg></g></svg></g></svg></g></svg></g></svg></g></svg></g></svg></g></svg><rect width="395.52" height="247.2" fill="none" stroke="none" visibility="hidden"></rect></g></svg></g></svg>