<svg xmlns="http://www.w3.org/2000/svg" version="1.1" xmlns:xlink="http://www.w3.org/1999/xlink" xmlns:svgjs="http://svgjs.dev/svgjs" width="1000" height="1000" viewBox="0 0 1000 1000"><rect width="1000" height="1000" fill="#ffffff"></rect><g transform="matrix(0.7,0,0,0.7,150,150)"><svg viewBox="0 0 280 280" data-background-color="#ffffff" preserveAspectRatio="xMidYMid meet" height="1000" width="1000" xmlns="http://www.w3.org/2000/svg" xmlns:xlink="http://www.w3.org/1999/xlink"><defs></defs><g id="tight-bounds" transform="matrix(1,0,0,1,0,0)"><svg viewBox="0 0 280 280" height="280" width="280"><g><svg viewBox="0 0 280 280" height="280" width="280"><g><svg viewBox="0 0 280 280" height="280" width="280"><g><svg viewBox="0 0 280 280" height="280" width="280"><g><svg viewBox="0 0 280 280" height="280" width="280"><g transform="matrix(1,0,0,1,74.32061330928072,74.00336708925556)"><svg viewBox="0 0 131.35877338143857 131.99326582148888" height="131.99326582148888" width="131.35877338143857"><g><svg xmlns="http://www.w3.org/2000/svg" xmlns:xlink="http://www.w3.org/1999/xlink" version="1.1" x="0" y="0" viewBox="0.2860593795776367 0.043999671936035156 50.11394119262695 50.35600280761719" enable-background="new 0 0 50.4 50.4" xml:space="preserve" width="131.35877338143857" height="131.99326582148888" class="icon-o-0" data-fill-palette-color="accent" id="o-0"><path fill="#000000" d="M32.222 8.25h-1.399c-0.325-4.617-4.115-8.206-8.751-8.206-4.624 0-8.402 3.569-8.746 8.206h-1.401v2.084h1.362l-0.002 5.538 1.959 0.001 0.002-7.312c0.163-3.678 3.161-6.56 6.826-6.56 3.663 0 6.662 2.882 6.826 6.519l0.015 7.432 1.957-0.003-0.011-5.614h1.364L32.222 8.25 32.222 8.25z" data-fill-palette-color="accent"></path><path fill="#000000" d="M12.735 25.604l5.75-3.952-2.113-4.528H14.8c-3.319 0-5.989 1.989-7.195 4.857L12.735 25.604z" data-fill-palette-color="accent"></path><path fill="#000000" d="M11.958 26.555l-4.747-3.352C7.029 23.922 6.9 24.665 6.9 25.449v6.045h5.058V26.555z" data-fill-palette-color="accent"></path><path fill="#000000" d="M6.9 32.718v7.838l-5.863 2.459c-0.624 0.261-0.917 0.979-0.655 1.602 0.196 0.469 0.65 0.751 1.13 0.751 0.157 0 0.317-0.03 0.472-0.096l4.941-2.073c0.269 3.514 5.033 3.421 5.033-0.302V32.718H6.9z" data-fill-palette-color="accent"></path><path fill="#000000" d="M35.034 20.139c0.18 0 0.354 0.021 0.53 0.028-1.41-1.852-3.563-3.044-6.118-3.044h-1.922l-2.113 4.528 1.597 1.096C29.317 21.103 32.071 20.139 35.034 20.139z" data-fill-palette-color="accent"></path><rect x="16.839" y="8.152" fill="#000000" width="10.416" height="7.757" data-fill-palette-color="accent"></rect><path fill="#000000" d="M50.4 30.2h-3.479c-2.053-4.963-6.603-8.429-11.888-8.429-6.685 0-12.202 5.54-12.958 12.648l13.607-5.369c0.631-0.25 1.341 0.061 1.588 0.688 0.248 0.63-0.062 1.341-0.688 1.588L22.025 37.07c0.465 7.435 6.112 13.33 13.009 13.33 7.199 0 13.056-6.421 13.056-14.314 0-0.195-0.02-0.388-0.026-0.582H50.4V30.2z" data-fill-palette-color="accent"></path><g fill="#0023ff" data-fill-palette-color="accent"><path fill="#000000" d="M13.56 37.781l6.843-2.699c0.271-4.68 2.394-8.814 5.597-11.542l-2.135-1.468 2.31-4.949h-8.452l2.31 4.949-6.485 4.459L13.56 37.781z" data-fill-palette-color="accent"></path><path fill="#000000" d="M13.562 40.411l0.006 5.54h9.95c-1.688-2.319-2.796-5.154-3.087-8.251L13.562 40.411z" data-fill-palette-color="accent"></path></g></svg></g></svg></g><path d="M29.591 109.392l-1.014 3.146-26.539-8.552 0.812-2.522 20.058-1.853-17.63-5.682 0.993-3.08 26.54 8.552-0.761 2.361-20.582 1.789zM43.363 79.568l-5.392 9.444-24.214-13.827 5.357-9.383 2.508 1.432-3.432 6.011 8.017 4.577 2.785-4.877 2.387 1.363-2.785 4.877 8.881 5.072 3.467-6.071zM54.013 66.758l-2.019 2.161-23.485-15.705 2.209-2.365 16.69 11.484-12.009-16.351 1.876-2.009 17.233 10.903-12.718-15.883 2.162-2.315 17.32 22.307-1.924 2.059-17.752-11.251zM92.448 38.582v0c-1.789 0.845-3.352 1.127-4.687 0.848-1.339-0.286-2.499-0.971-3.482-2.057-0.982-1.085-1.841-2.405-2.575-3.96v0l-4.2-8.897c-0.805-1.705-1.314-3.282-1.529-4.73-0.214-1.448 0.009-2.75 0.667-3.905 0.656-1.161 1.878-2.164 3.668-3.009v0c1.573-0.743 2.959-1.041 4.158-0.895 1.197 0.14 2.251 0.655 3.164 1.546 0.918 0.888 1.735 2.088 2.449 3.601v0l0.94 1.99-3.332 1.573-0.838-1.774c-0.439-0.931-0.876-1.73-1.309-2.399-0.43-0.678-0.945-1.114-1.543-1.309-0.607-0.198-1.397-0.067-2.37 0.392v0c-0.997 0.471-1.622 1.027-1.877 1.668-0.255 0.642-0.269 1.382-0.041 2.222 0.236 0.843 0.6 1.784 1.09 2.822v0l4.715 9.987c0.598 1.267 1.176 2.22 1.735 2.859 0.553 0.642 1.143 1.006 1.771 1.091 0.619 0.082 1.333-0.068 2.144-0.45v0c0.955-0.451 1.54-0.984 1.755-1.6 0.213-0.622 0.196-1.333-0.05-2.135-0.249-0.793-0.609-1.687-1.08-2.684v0l-0.88-1.864 3.332-1.573 0.88 1.864c0.726 1.537 1.176 2.98 1.351 4.329 0.181 1.346-0.031 2.562-0.635 3.648-0.604 1.085-1.734 2.019-3.391 2.801zM113.317 30.886l-3.677 1.011-7.392-26.886 3.677-1.011zM133.289 28.281l-3.395 0.267-8.392-27.309 3.634-0.286 6 20.145 2.577-20.82 3.534-0.278zM154.032 28.688l-3.8-0.328 2.399-27.78 3.8 0.328zM176.57 33.734l-10.653-2.798 7.084-26.969 3.757 0.987-6.376 24.272 6.896 1.811zM205.979 48.928l-6.17-4.137 15.531-23.158 5.318 3.566c1.048 0.703 1.882 1.426 2.502 2.17 0.617 0.749 1.022 1.533 1.217 2.351 0.197 0.827 0.17 1.689-0.079 2.585-0.244 0.9-0.698 1.846-1.364 2.838v0c-0.64 0.954-1.311 1.699-2.014 2.234-0.703 0.536-1.432 0.842-2.187 0.92-0.751 0.072-1.549-0.092-2.394-0.49v0c0.797 0.838 1.314 1.7 1.551 2.586 0.228 0.888 0.213 1.822-0.044 2.801-0.253 0.973-0.749 2.011-1.489 3.114v0c-0.666 0.992-1.387 1.824-2.164 2.494-0.783 0.666-1.607 1.121-2.473 1.363-0.87 0.248-1.785 0.278-2.745 0.089-0.966-0.192-1.965-0.634-2.996-1.326zM210.434 35.921l-5.846 8.717 2.175 1.459c1.45 0.973 2.645 1.282 3.585 0.929 0.936-0.347 1.911-1.276 2.924-2.787v0c0.651-0.97 1.067-1.871 1.248-2.7 0.186-0.826 0.111-1.596-0.226-2.31-0.341-0.708-0.988-1.382-1.941-2.022v0zM216.957 26.194l-4.87 7.262 1.918 1.287c0.915 0.614 1.714 0.966 2.398 1.056 0.692 0.088 1.335-0.084 1.929-0.517 0.59-0.427 1.193-1.099 1.806-2.014v0c0.717-1.07 1.072-1.951 1.065-2.643-0.004-0.698-0.307-1.337-0.909-1.916-0.604-0.589-1.458-1.253-2.56-1.993v0zM221.127 61.601l-2.506-2.647 24.317-14.872 2.581 2.727-16.157 23.492-2.533-2.676 4.223-5.751-3.902-4.123zM240.239 49.242l-10.708 6.968 3.19 3.371zM237.012 81.294l-1.746-2.808 23.68-14.723 1.398 2.25-11.55 16.503 15.731-9.78 1.708 2.749-23.679 14.722-1.31-2.105 11.938-16.862zM248.336 104.394l-1.272-3.669 26.346-9.131 1.272 3.67-12.42 4.304 14.517 1.746 1.183 3.416-13.414-1.18-12.638 11.157-1.239-3.576 10.616-9.328-3.645-0.634zM10.588 185.141l-1.022-3.166 26.763-8.639 0.82 2.54-15.325 13.34 17.778-5.739 1.004 3.108-26.763 8.639-0.768-2.379 15.785-13.602zM26.081 218.814l-5.442-9.519 24.415-13.957 5.407 9.458-2.533 1.448-3.46-6.052-8.075 4.616 2.808 4.911-2.412 1.379-2.808-4.911-8.956 5.121 3.494 6.112zM39.473 235.301l-2.041-2.182 17.411-22.555 2.224 2.379-12.69 16.012 17.27-10.969 1.891 2.022-12.153 16.601 16.851-11.723 2.184 2.334-23.622 15.915-1.945-2.08 12.536-17.096zM83.73 268.438v0c-1.796-0.846-3.015-1.88-3.658-3.1-0.64-1.227-0.852-2.567-0.636-4.022 0.213-1.463 0.688-2.978 1.427-4.545v0l4.238-8.99c0.807-1.711 1.707-3.115 2.701-4.21 0.987-1.098 2.145-1.763 3.473-1.995 1.325-0.227 2.886 0.083 4.681 0.929v0c1.591 0.75 2.718 1.637 3.38 2.662 0.653 1.027 0.928 2.181 0.824 3.46-0.104 1.279-0.517 2.685-1.239 4.216v0l-0.947 2.009-3.36-1.584 0.845-1.793c0.444-0.943 0.789-1.797 1.032-2.563 0.244-0.766 0.249-1.446 0.016-2.04-0.225-0.598-0.829-1.129-1.815-1.593v0c-1.003-0.473-1.837-0.602-2.503-0.388-0.663 0.208-1.25 0.673-1.759 1.395-0.503 0.724-1.001 1.609-1.493 2.654v0l-4.752 10.079c-0.603 1.279-0.975 2.34-1.116 3.185-0.138 0.838-0.042 1.529 0.289 2.073 0.333 0.539 0.908 1.001 1.725 1.386v0c0.961 0.453 1.752 0.565 2.373 0.337 0.624-0.234 1.164-0.703 1.62-1.405 0.465-0.706 0.934-1.56 1.406-2.563v0l0.888-1.882 3.36 1.584-0.888 1.882c-0.73 1.549-1.564 2.826-2.499 3.831-0.936 1.005-2.019 1.621-3.25 1.848-1.233 0.219-2.688-0.067-4.363-0.857zM108.102 276.764l-3.717-1.021 7.447-27.119 3.716 1.021zM131.77 280l-3.425-0.269-4.065-28.528 3.674 0.289 2.807 21.007 5.84-20.329 3.564 0.28zM155.777 279.58l-3.839 0.331-2.416-28.019 3.839-0.331zM181.655 273.953l-10.74 2.817-7.134-27.203 3.795-0.996 6.422 24.487 6.945-1.821zM217.018 256.088l-6.232 4.17-15.641-23.372 5.363-3.589c1.059-0.709 2.056-1.208 2.989-1.496 0.933-0.289 1.819-0.367 2.659-0.234 0.845 0.129 1.64 0.48 2.383 1.053 0.743 0.573 1.451 1.362 2.123 2.366v0c0.642 0.96 1.08 1.87 1.311 2.73 0.23 0.869 0.234 1.669 0.012 2.4-0.222 0.731-0.677 1.412-1.366 2.041v0c1.084-0.422 2.084-0.568 3.002-0.439 0.919 0.12 1.784 0.488 2.595 1.103 0.813 0.606 1.594 1.469 2.344 2.589v0c0.668 0.999 1.164 1.989 1.486 2.972 0.322 0.983 0.43 1.925 0.322 2.828-0.103 0.908-0.428 1.772-0.973 2.592-0.547 0.83-1.34 1.591-2.377 2.286zM206.592 246.936l5.893 8.806 2.193-1.468c1.462-0.978 2.207-1.972 2.235-2.981 0.033-1.013-0.458-2.278-1.473-3.795v0c-0.657-0.982-1.337-1.717-2.04-2.206-0.706-0.494-1.456-0.719-2.249-0.675-0.788 0.04-1.665 0.383-2.63 1.029v0zM200.029 237.129l4.902 7.325 1.928-1.291c0.927-0.62 1.563-1.234 1.908-1.84 0.345-0.606 0.43-1.267 0.256-1.981-0.173-0.723-0.567-1.546-1.184-2.467v0c-0.72-1.076-1.408-1.746-2.063-2.01-0.647-0.262-1.358-0.221-2.135 0.123-0.775 0.335-1.719 0.875-2.834 1.62v0zM235.538 240.593l-2.535 2.674-16.298-23.685 2.604-2.746 24.54 14.991-2.556 2.695-6.022-3.939-3.939 4.156zM222.053 222.018l7.59 10.406 3.227-3.404zM253.908 217.728l-1.759 2.824-23.87-14.869 1.411-2.266 20.08 3.099-15.857-9.878 1.727-2.772 23.87 14.869-1.322 2.121-20.577-3.279zM267.182 190.596l-1.288 3.707-26.566-9.226 1.288-3.707 12.53 4.352-10.413-10.448 1.195-3.443 9.889 9.317 16.975-0.947-1.255 3.613-14.229 0.751 2.495 2.774zM3.594 144.181c0-5.933 4.81-10.743 10.743-10.743 5.933 0 10.743 4.81 10.743 10.743 0 5.933-4.81 10.743-10.743 10.742-5.933 0-10.743-4.81-10.743-10.742zM254.551 144.181c0-5.933 4.81-10.743 10.743-10.743 5.933 0 10.743 4.81 10.743 10.743 0 5.933-4.81 10.743-10.743 10.742-5.933 0-10.743-4.81-10.743-10.742z" fill="#000000" data-fill-palette-color="primary"></path></svg></g></svg></g></svg></g><g></g></svg></g></svg><rect width="280" height="280" fill="none" stroke="none" visibility="hidden"></rect></g></svg></g></svg>