<svg xmlns="http://www.w3.org/2000/svg" version="1.1" xmlns:xlink="http://www.w3.org/1999/xlink" xmlns:svgjs="http://svgjs.dev/svgjs" width="1000" height="1000" viewBox="0 0 1000 1000"><rect width="1000" height="1000" fill="#ffffff"></rect><g transform="matrix(0.7,0,0,0.7,150,150)"><svg viewBox="0 0 280 280" data-background-color="#ffffff" preserveAspectRatio="xMidYMid meet" height="1000" width="1000" xmlns="http://www.w3.org/2000/svg" xmlns:xlink="http://www.w3.org/1999/xlink"><defs></defs><g id="tight-bounds" transform="matrix(1,0,0,1,0,0)"><svg viewBox="0 0 280 280" height="280" width="280"><g><svg viewBox="0 0 280 280" height="280" width="280"><g><svg viewBox="0 0 280 280" height="280" width="280"><g><svg viewBox="0 0 280 280" height="280" width="280"><g><svg viewBox="0 0 280 280" height="280" width="280"><g transform="matrix(1,0,0,1,74.21962262367686,108.88619529920685)"><svg viewBox="0 0 131.5607547526463 62.2276094015863" height="62.2276094015863" width="131.5607547526463"><g><svg xmlns="http://www.w3.org/2000/svg" xmlns:xlink="http://www.w3.org/1999/xlink" version="1.1" x="0" y="0" viewBox="7.0629987716674805 29.69099998474121 85.87400817871094 40.61799621582031" enable-background="new 0 0 100 100" xml:space="preserve" height="62.2276094015863" width="131.5607547526463" class="icon-o-0" data-fill-palette-color="accent" id="o-0"><g fill="#35185a" data-fill-palette-color="accent"><path d="M16.304 70.309h67.393v-9.281H16.304V70.309zM81.356 68.583H18.644v-0.777h62.711V68.583zM80.562 62.836c0.866 0 1.567 0.706 1.567 1.578 0 0.871-0.702 1.578-1.567 1.578-0.866 0-1.567-0.706-1.567-1.578C78.995 63.542 79.696 62.836 80.562 62.836zM75.86 62.836c0.866 0 1.567 0.706 1.567 1.578 0 0.871-0.702 1.578-1.567 1.578s-1.567-0.706-1.567-1.578C74.293 63.542 74.995 62.836 75.86 62.836zM71.158 62.836c0.866 0 1.567 0.706 1.567 1.578 0 0.871-0.702 1.578-1.567 1.578-0.866 0-1.567-0.706-1.567-1.578C69.591 63.542 70.293 62.836 71.158 62.836zM66.456 62.836c0.866 0 1.567 0.706 1.567 1.578 0 0.871-0.702 1.578-1.567 1.578-0.866 0-1.567-0.706-1.567-1.578C64.889 63.542 65.591 62.836 66.456 62.836zM61.755 62.836c0.865 0 1.567 0.706 1.567 1.578 0 0.871-0.702 1.578-1.567 1.578-0.866 0-1.567-0.706-1.567-1.578C60.187 63.542 60.889 62.836 61.755 62.836zM57.053 62.836c0.866 0 1.567 0.706 1.567 1.578 0 0.871-0.702 1.578-1.567 1.578-0.866 0-1.567-0.706-1.567-1.578C55.485 63.542 56.187 62.836 57.053 62.836zM52.351 62.836c0.866 0 1.567 0.706 1.567 1.578 0 0.871-0.702 1.578-1.567 1.578-0.866 0-1.567-0.706-1.567-1.578C50.784 63.542 51.485 62.836 52.351 62.836zM47.649 62.836c0.866 0 1.567 0.706 1.567 1.578 0 0.871-0.702 1.578-1.567 1.578-0.866 0-1.567-0.706-1.567-1.578C46.082 63.542 46.784 62.836 47.649 62.836zM42.947 62.836c0.866 0 1.567 0.706 1.567 1.578 0 0.871-0.702 1.578-1.567 1.578-0.866 0-1.567-0.706-1.567-1.578C41.38 63.542 42.082 62.836 42.947 62.836zM38.245 62.836c0.865 0 1.567 0.706 1.567 1.578 0 0.871-0.702 1.578-1.567 1.578-0.866 0-1.567-0.706-1.567-1.578C36.678 63.542 37.38 62.836 38.245 62.836zM33.544 62.836c0.866 0 1.567 0.706 1.567 1.578 0 0.871-0.702 1.578-1.567 1.578-0.866 0-1.567-0.706-1.567-1.578C31.976 63.542 32.678 62.836 33.544 62.836zM28.842 62.836c0.866 0 1.567 0.706 1.567 1.578 0 0.871-0.702 1.578-1.567 1.578-0.866 0-1.567-0.706-1.567-1.578C27.275 63.542 27.976 62.836 28.842 62.836zM24.14 62.836c0.865 0 1.567 0.706 1.567 1.578 0 0.871-0.702 1.578-1.567 1.578-0.866 0-1.567-0.706-1.567-1.578C22.573 63.542 23.274 62.836 24.14 62.836zM19.438 62.836c0.866 0 1.567 0.706 1.567 1.578 0 0.871-0.702 1.578-1.567 1.578-0.866 0-1.567-0.706-1.567-1.578C17.871 63.542 18.573 62.836 19.438 62.836z" fill="#35185a" data-fill-palette-color="accent"></path><circle cx="38.363" cy="42.927" r="1.7" fill="#35185a" data-fill-palette-color="accent"></circle><circle cx="80.715" cy="47.43" r="1.3" fill="#35185a" data-fill-palette-color="accent"></circle><circle cx="19.285" cy="47.43" r="1.3" fill="#35185a" data-fill-palette-color="accent"></circle><circle cx="61.638" cy="42.927" r="1.7" fill="#35185a" data-fill-palette-color="accent"></circle><path d="M88.492 31.18c-2.456 0-4.446 1.991-4.446 4.446 0 1.072 0.379 2.055 1.011 2.823-2.518 1.872-5.934 3.984-8.533 3.984L61.256 29.691 50 41.036 38.744 29.691 23.477 42.433c-2.6 0-6.016-2.113-8.533-3.984 0.632-0.768 1.011-1.751 1.011-2.823 0-2.456-1.991-4.446-4.446-4.446-2.456 0-4.446 1.991-4.446 4.446 0 2.456 1.991 4.446 4.446 4.446 0.087 0 0.172-0.008 0.257-0.013 0.991 9.304 4.538 19.283 4.538 19.283s16.848 0 33.696 0 33.696 0 33.696 0 3.547-9.979 4.538-19.283c0.086 0.005 0.17 0.013 0.257 0.013 2.456 0 4.446-1.991 4.446-4.446C92.938 33.17 90.947 31.18 88.492 31.18zM83.367 54.621v0.777H16.633v-0.777h1.874V50.16c-1.193-0.341-2.074-1.429-2.074-2.73 0-1.572 1.279-2.851 2.851-2.851 1.572 0 2.851 1.279 2.851 2.851 0 1.301-0.881 2.389-2.074 2.73v4.461h17.523v-8.594c-1.392-0.35-2.43-1.602-2.43-3.101 0-1.768 1.439-3.207 3.207-3.207 1.768 0 3.207 1.439 3.207 3.207 0 1.499-1.038 2.751-2.43 3.101v8.594h21.72v-8.594c-1.392-0.35-2.429-1.602-2.429-3.101 0-1.768 1.439-3.207 3.207-3.207 1.768 0 3.207 1.439 3.207 3.207 0 1.499-1.038 2.751-2.429 3.101v8.594h17.523V50.16c-1.193-0.341-2.074-1.429-2.074-2.73 0-1.572 1.279-2.851 2.851-2.851 1.572 0 2.851 1.279 2.851 2.851 0 1.301-0.881 2.389-2.074 2.73v4.461H83.367z" fill="#35185a" data-fill-palette-color="accent"></path></g></svg></g></svg></g><path d="M12.966 92.533v0c3.045 0.989 4.75 2.699 5.113 5.131v0l11.687-1.499-0.752 2.317-10.93 1.436c-0.124 0.799-0.335 1.656-0.632 2.571v0l-0.794 2.443 9.281 3.015-0.702 2.163-22.242-7.224 1.496-4.607c0.841-2.588 1.856-4.344 3.046-5.267v0c1.353-1.055 3.163-1.215 5.429-0.479zM6.189 99.002l-0.744 2.288 9.465 3.075 0.744-2.289c0.613-1.886 0.694-3.43 0.243-4.629-0.45-1.2-1.619-2.106-3.505-2.719v0c-2.414-0.784-4.17-0.134-5.267 1.951v0c-0.335 0.66-0.647 1.434-0.936 2.323zM14.171 75.566v0c2.997-5.85 8.023-6.968 15.078-3.354v0c3.229 1.654 5.354 3.796 6.373 6.425 1.022 2.623 0.888 5.193-0.403 7.712v0c-1.37 2.675-3.163 4.37-5.376 5.084v0c-2.621 0.81-5.684 0.317-9.191-1.48-3.507-1.796-5.783-4.02-6.829-6.669-1.046-2.65-0.93-5.223 0.348-7.718zM29.16 89.246v0c1.788-0.461 3.214-1.731 4.279-3.809v0c1.006-1.964 1.058-3.98 0.154-6.048-0.912-2.065-2.824-3.842-5.733-5.333-2.916-1.494-5.446-1.953-7.589-1.377v0c-1.824 0.473-3.264 1.739-4.32 3.8v0c-0.994 1.94-1.035 3.95-0.122 6.029 0.912 2.08 2.829 3.868 5.751 5.365 2.928 1.5 5.455 1.958 7.58 1.373zM23.159 60.895l15.256 2.492-6.725-13.762 1.409-1.863 7.449 15.903 6.259 4.737-1.269 1.676-6.283-4.756-17.567-2.483zM63.683 50.746l-5.879-2.922-7.412 7.147 2.757 5.932-1.564 1.508-10.151-22.698 1.469-1.417 22.534 10.758zM43.847 40.913l5.798 12.465 6.564-6.33zM76.927 38.567l1.031 1.722-10.302 7.363-13.598-19.025 1.85-1.323 12.435 17.398zM95.446 13.909l-1.785-3.843c-1.222 0.027-2.407 0.281-3.556 0.762v0c-2.323 0.972-3.843 2.61-4.559 4.914-0.71 2.301-0.378 5.093 0.997 8.378 1.378 3.291 3.09 5.278 5.138 5.962v0c1.411 0.495 3.031 0.36 4.861-0.406v0c1.168-0.489 2.289-1.116 3.363-1.881 1.07-0.756 1.769-1.35 2.095-1.779v0l1.062 1.327c-0.654 0.979-2.065 2.053-4.231 3.225v0c-0.622 0.356-1.298 0.686-2.029 0.992-0.731 0.306-1.636 0.545-2.715 0.719-1.086 0.176-2.201 0.081-3.345-0.285v0c-2.591-0.824-4.677-3.124-6.258-6.902-1.582-3.778-1.906-7.077-0.972-9.897 0.936-2.814 2.84-4.822 5.712-6.024v0c1.605-0.672 3.115-0.93 4.531-0.774v0c0.525 0.044 0.965 0.15 1.321 0.317v0l1.87 4.468zM114.621 8.318v0c0.786 3.104 0.247 5.458-1.617 7.061v0l7.497 9.09-2.362 0.598-7.04-8.483c-0.743 0.321-1.58 0.599-2.512 0.835v0l-2.49 0.63 2.394 9.46-2.205 0.559-5.739-22.671 4.696-1.189c2.638-0.668 4.665-0.745 6.08-0.23v0c1.614 0.583 2.714 2.029 3.298 4.34zM105.536 6.03l-2.333 0.591 2.442 9.647 2.333-0.591c1.923-0.487 3.272-1.24 4.048-2.261 0.775-1.02 0.919-2.492 0.432-4.414v0c-0.623-2.461-2.109-3.6-4.458-3.418v0c-0.737 0.068-1.558 0.216-2.464 0.446zM129.621 0.296v0c6.548-0.581 10.172 3.076 10.873 10.973v0c0.321 3.614-0.36 6.553-2.041 8.816-1.675 2.262-3.922 3.519-6.741 3.768v0c-2.994 0.266-5.383-0.348-7.167-1.841v0c-2.082-1.786-3.297-4.641-3.645-8.566-0.348-3.925 0.32-7.035 2.005-9.332 1.685-2.297 3.924-3.57 6.716-3.818zM126.032 20.27v0c1.343 1.267 3.177 1.798 5.503 1.591v0c2.198-0.195 3.932-1.226 5.2-3.092 1.261-1.872 1.747-4.437 1.458-7.694-0.29-3.264-1.249-5.649-2.878-7.155v0c-1.372-1.292-3.211-1.835-5.517-1.631v0c-2.171 0.193-3.894 1.229-5.168 3.109-1.274 1.88-1.766 4.455-1.475 7.726 0.291 3.277 1.25 5.659 2.877 7.146zM159.97 1.799l2.694 20.607 7.987-19.277 2.147 0.268-9.682 22.36-2.025-0.252-2.538-20.382-7.932 19.079-2.055-0.256-3.046-23.946 2.086 0.26 2.565 20.488 7.945-19.18zM188.542 33.098l-2.311-0.773-6.169-23.554-6.312 19.379-1.993-0.667 7.419-22.178 2.311 0.773 6.14 23.545 6.341-19.369 1.993 0.666zM206.343 43.383l-1.781-1.135 11.492-18.024-5.574-3.554 1.218-1.608 12.766 8.14-1.226 1.602-5.403-3.444zM234.779 44.097v0c-2.077 2.437-4.308 3.36-6.694 2.768v0l-3.074 11.375-1.855-1.58 2.844-10.651c-0.691-0.42-1.403-0.942-2.135-1.565v0l-1.956-1.666-6.328 7.428-1.732-1.475 15.166-17.801 3.687 3.141c2.072 1.765 3.307 3.373 3.707 4.825v0c0.459 1.654-0.085 3.387-1.63 5.201zM231.386 35.364l-1.831-1.56-6.454 7.575 1.832 1.561c1.51 1.286 2.905 1.95 4.186 1.991 1.281 0.042 2.564-0.692 3.85-2.202v0c1.646-1.932 1.715-3.804 0.207-5.613v0c-0.482-0.562-1.078-1.146-1.79-1.752zM253.541 55.763l1.379 1.586-10.085 8.768c-2.621 2.279-5.128 3.382-7.523 3.311v0c-2.11-0.085-3.994-1.08-5.65-2.986-1.657-1.906-2.473-3.757-2.448-5.555v0c0.063-2.414 1.581-4.914 4.555-7.499v0l10.084-8.767 1.493 1.716-10.062 8.748c-2.437 2.119-3.721 4.119-3.852 6v0c-0.099 1.413 0.474 2.835 1.717 4.266v0c1.857 2.135 4.208 2.585 7.053 1.349v0c1.01-0.438 2.102-1.168 3.277-2.189v0zM264.92 74.486v0l-1.833 0.665c-0.579-1.663-1.183-3.004-1.812-4.024v0c-2.269-3.683-4.522-4.835-6.758-3.457v0c-0.853 0.526-1.34 1.2-1.462 2.022-0.121 0.822-0.075 1.736 0.139 2.741 0.214 1.005 0.496 2.056 0.845 3.153 0.346 1.091 0.573 2.168 0.68 3.231v0c0.228 2.499-0.635 4.351-2.589 5.555-1.954 1.204-3.883 1.383-5.788 0.537v0c-1.641-0.714-3.092-2.094-4.352-4.14v0c-1.566-2.542-2.309-5.038-2.23-7.489v0l1.906-0.16c-0.041 0.733 0.071 1.67 0.336 2.811 0.275 1.143 0.687 2.161 1.238 3.054v0c1.073 1.74 2.205 2.939 3.397 3.596v0c1.449 0.777 2.825 0.764 4.127-0.039v0c0.968-0.597 1.556-1.333 1.764-2.208 0.211-0.87 0.226-1.821 0.043-2.854-0.174-1.03-0.434-2.091-0.78-3.181-0.35-1.097-0.593-2.163-0.731-3.199v0c-0.349-2.425 0.303-4.147 1.957-5.166 1.648-1.016 3.306-1.254 4.975-0.716 1.662 0.542 3.136 1.856 4.421 3.943v0c0.994 1.614 1.83 3.389 2.507 5.325zM250.19 96.785l-0.852-1.932 19.559-8.623-2.667-6.049 1.905-0.662 6.108 13.854-1.91 0.653-2.584-5.863zM29.29 188.742v0c-3.045 0.989-5.429 0.607-7.152-1.147v0l-8.575 8.081-0.753-2.318 8-7.584c-0.369-0.72-0.702-1.537-0.999-2.452v0l-0.794-2.443-9.281 3.015-0.703-2.164 22.242-7.224 1.496 4.606c0.841 2.588 1.051 4.605 0.632 6.052v0c-0.475 1.649-1.846 2.842-4.113 3.578zM30.973 179.526l-0.743-2.289-9.465 3.074 0.744 2.289c0.613 1.886 1.454 3.183 2.523 3.889 1.069 0.706 2.547 0.753 4.433 0.14v0c2.414-0.784 3.453-2.342 3.116-4.674v0c-0.116-0.731-0.319-1.541-0.608-2.429zM40.87 197.334v0c2.997 5.85 0.968 10.583-6.087 14.197v0c-3.229 1.654-6.209 2.127-8.938 1.418-2.726-0.703-4.734-2.314-6.024-4.833v0c-1.37-2.675-1.699-5.12-0.984-7.334v0c0.874-2.6 3.064-4.798 6.571-6.594 3.507-1.796 6.641-2.345 9.403-1.645 2.762 0.7 4.782 2.297 6.059 4.791zM21.01 201.506v0c-0.67 1.72-0.473 3.62 0.592 5.698v0c1.006 1.964 2.612 3.184 4.818 3.659 2.209 0.466 4.768-0.047 7.678-1.537 2.916-1.494 4.767-3.279 5.552-5.354v0c0.682-1.757 0.496-3.665-0.56-5.726v0c-0.994-1.94-2.601-3.148-4.822-3.622-2.221-0.475-4.792 0.036-7.715 1.533-2.928 1.5-4.776 3.283-5.543 5.349zM46.868 207.737l-6.54 14.005 15.071-2.734 1.41 1.862-17.328 2.85-6.259 4.737-1.268-1.676 6.283-4.755 7.161-16.232zM51.857 248.095l2.706-5.981-7.412-7.147-5.827 2.972-1.564-1.509 22.314-10.97 1.469 1.417-9.932 22.91zM60.962 227.915l-12.245 6.248 6.564 6.33zM69.347 258.616l-1.296 1.533-10.302-7.363 13.599-19.026 1.85 1.323-12.435 17.398zM101.744 257.623l1.485-3.969c-0.877-0.851-1.889-1.517-3.038-1.998v0c-2.323-0.972-4.556-0.906-6.7 0.2-2.137 1.109-3.894 3.305-5.269 6.59-1.378 3.291-1.592 5.906-0.642 7.845v0c0.637 1.353 1.871 2.412 3.701 3.178v0c1.168 0.489 2.401 0.847 3.7 1.075 1.29 0.232 2.203 0.313 2.738 0.244v0l-0.201 1.689c-1.156 0.22-2.912-0.03-5.266-0.752v0c-0.69-0.193-1.4-0.443-2.131-0.749-0.731-0.306-1.536-0.783-2.417-1.43-0.887-0.65-1.602-1.511-2.145-2.582v0c-1.231-2.424-1.056-5.524 0.526-9.302 1.582-3.778 3.704-6.324 6.368-7.638 2.661-1.308 5.428-1.36 8.3-0.158v0c1.605 0.672 2.848 1.567 3.731 2.684v0c0.337 0.405 0.571 0.793 0.702 1.164v0l-1.87 4.468zM118.833 261.621v0c-0.786 3.104-2.38 4.918-4.781 5.441v0l2.268 11.562-2.363-0.598-2.154-10.811c-0.806-0.071-1.675-0.225-2.607-0.461v0l-2.491-0.63-2.395 9.46-2.205-0.558 5.74-22.671 4.695 1.189c2.638 0.668 4.457 1.565 5.457 2.691v0c1.142 1.281 1.421 3.076 0.836 5.386zM111.932 255.286l-2.333-0.591-2.443 9.647 2.333 0.591c1.923 0.487 3.468 0.466 4.636-0.063 1.167-0.528 1.994-1.754 2.481-3.677v0c0.623-2.461-0.142-4.17-2.295-5.127v0c-0.681-0.291-1.474-0.551-2.379-0.78zM132.274 256.4v0c6.548 0.581 9.471 4.82 8.77 12.716v0c-0.321 3.614-1.508 6.387-3.563 8.318-2.047 1.932-4.48 2.773-7.299 2.523v0c-2.994-0.266-5.237-1.291-6.73-3.075v0c-1.735-2.125-2.428-5.15-2.08-9.074 0.348-3.925 1.554-6.869 3.619-8.833 2.064-1.964 4.491-2.823 7.283-2.575zM125.222 275.429v0c1.098 1.484 2.811 2.329 5.137 2.535v0c2.198 0.195 4.086-0.514 5.664-2.127 1.571-1.621 2.501-4.06 2.79-7.317 0.29-3.264-0.234-5.781-1.573-7.551v0c-1.123-1.513-2.838-2.372-5.143-2.577v0c-2.171-0.193-4.05 0.524-5.635 2.151-1.585 1.626-2.523 4.075-2.813 7.345-0.291 3.277 0.234 5.791 1.573 7.541zM156.296 255.271l7.665 19.317 3.016-20.647 2.146-0.267-3.902 24.052-2.025 0.252-7.459-19.138-3.011 20.442-2.055 0.256-8.825-22.467 2.086-0.26 7.511 19.234 2.999-20.543zM193.947 269.636l-2.311 0.773-19.1-15.1 6.619 19.275-1.993 0.667-7.419-22.177 2.311-0.774 19.071 15.111-6.591-19.286 1.994-0.667zM215.502 257.56l-1.781 1.135-11.491-18.023-5.574 3.554-0.944-1.783 12.766-8.14 0.936 1.788-5.403 3.445zM223.648 229.415v0c2.077 2.437 2.633 4.787 1.669 7.049v0l10.742 4.842-1.855 1.58-10.063-4.499c-0.525 0.616-1.153 1.236-1.885 1.859v0l-1.955 1.666 6.328 7.428-1.731 1.475-15.166-17.802 3.687-3.141c2.072-1.765 3.856-2.729 5.353-2.892v0c1.706-0.19 3.331 0.622 4.876 2.435zM214.487 231.377l-1.832 1.56 6.454 7.576 1.832-1.561c1.51-1.286 2.387-2.558 2.631-3.816 0.245-1.258-0.276-2.642-1.562-4.152v0c-1.646-1.932-3.483-2.298-5.509-1.096v0c-0.631 0.387-1.302 0.883-2.014 1.489zM231.101 211.305l1.379-1.586 10.085 8.768c2.621 2.279 4.062 4.608 4.324 6.989v0c0.209 2.102-0.515 4.105-2.171 6.011-1.657 1.906-3.377 2.971-5.161 3.196v0c-2.399 0.273-5.086-0.883-8.059-3.468v0l-10.084-8.768 1.492-1.716 10.062 8.748c2.437 2.119 4.596 3.112 6.477 2.981v0c1.413-0.099 2.742-0.863 3.986-2.294v0c1.857-2.135 1.975-4.526 0.356-7.172v0c-0.574-0.939-1.449-1.919-2.624-2.941v0zM240.626 197.12v0l1.418 1.338c-1.225 1.265-2.152 2.407-2.781 3.428v0c-2.269 3.683-2.286 6.213-0.05 7.591v0c0.853 0.526 1.674 0.658 2.463 0.397 0.789-0.261 1.585-0.713 2.387-1.357 0.802-0.643 1.614-1.367 2.436-2.172 0.819-0.8 1.679-1.486 2.581-2.059v0c2.13-1.327 4.172-1.389 6.126-0.185 1.954 1.204 2.981 2.847 3.081 4.928v0c0.1 1.787-0.481 3.703-1.742 5.75v0c-1.566 2.542-3.462 4.327-5.687 5.357v0l-0.999-1.63c0.673-0.293 1.46-0.814 2.359-1.563 0.897-0.759 1.621-1.585 2.171-2.479v0c1.073-1.74 1.634-3.291 1.686-4.651v0c0.043-1.644-0.587-2.867-1.89-3.669v0c-0.968-0.597-1.89-0.791-2.765-0.583-0.872 0.202-1.728 0.617-2.568 1.244-0.842 0.618-1.673 1.327-2.492 2.126-0.822 0.805-1.665 1.502-2.529 2.092v0c-2.009 1.402-3.841 1.593-5.495 0.574-1.648-1.016-2.607-2.39-2.875-4.122-0.263-1.728 0.249-3.636 1.535-5.722v0c0.994-1.614 2.205-3.158 3.63-4.633zM265.779 196.665l-0.852 1.932-19.559-8.622-2.667 6.048-1.774-0.959 6.108-13.854 1.77 0.969-2.585 5.863zM3.141 143.289c0-4.961 4.022-8.984 8.983-8.984 4.961 0 8.984 4.022 8.984 8.984 0 4.961-4.022 8.984-8.984 8.983-4.961 0-8.984-4.022-8.983-8.983zM259.038 143.289c0-4.961 4.022-8.984 8.984-8.984 4.961 0 8.984 4.022 8.983 8.984 0 4.961-4.022 8.984-8.983 8.983-4.961 0-8.984-4.022-8.984-8.983z" fill="#35185a" data-fill-palette-color="primary"></path></svg></g></svg></g></svg></g></svg></g></svg><rect width="280" height="280" fill="none" stroke="none" visibility="hidden"></rect></g></svg></g></svg>